<svg width="627" height="389" viewBox="0 0 627 389" fill="none" xmlns="http://www.w3.org/2000/svg">
<rect width="20.1474" height="20.1474" transform="matrix(0.866025 0.5 0 1 35.1145 30.8505)" fill="#E9E9E9"/>
<rect width="20.1474" height="20.1474" transform="matrix(-0.866025 0.5 0 1 70.0107 30.8505)" fill="#C0BFBF"/>
<rect width="20.1488" height="20.1488" transform="matrix(0.866025 -0.5 0.866025 0.5 35.1145 30.8501)" fill="white"/>
<rect width="20.1474" height="20.1474" transform="matrix(0.866025 0.5 0 1 17.6943 40.9243)" fill="#E9E9E9"/>
<rect width="20.1474" height="20.1474" transform="matrix(-0.866025 0.5 0 1 52.5905 40.9243)" fill="#C0BFBF"/>
<rect width="20.1488" height="20.1488" transform="matrix(0.866025 -0.5 0.866025 0.5 17.6943 40.9241)" fill="white"/>
<rect width="20.1474" height="20.1474" transform="matrix(0.866025 0.5 0 1 0.233765 50.999)" fill="#E9E9E9"/>
<rect width="20.1474" height="20.1474" transform="matrix(-0.866025 0.5 0 1 35.1298 50.999)" fill="#C0BFBF"/>
<rect width="20.1488" height="20.1488" transform="matrix(0.866025 -0.5 0.866025 0.5 0.233765 50.9988)" fill="white"/>
<rect width="20.1474" height="20.1474" transform="matrix(0.866025 0.5 0 1 70.025 10.7032)" fill="#E9E9E9"/>
<rect width="20.1474" height="20.1474" transform="matrix(-0.866025 0.5 0 1 104.921 10.7032)" fill="#C0BFBF"/>
<rect width="20.1488" height="20.1488" transform="matrix(0.866025 -0.5 0.866025 0.5 70.025 10.7028)" fill="white"/>
<rect width="20.1474" height="20.1474" transform="matrix(0.866025 0.5 0 1 87.5098 20.7793)" fill="#E9E9E9"/>
<rect width="20.1474" height="20.1474" transform="matrix(-0.866025 0.5 0 1 122.406 20.7793)" fill="#C0BFBF"/>
<rect width="20.1488" height="20.1488" transform="matrix(0.866025 -0.5 0.866025 0.5 87.5098 20.7789)" fill="white"/>
<rect width="20.1474" height="20.1474" transform="matrix(0.866025 0.5 0 1 52.5933 40.9255)" fill="#E9E9E9"/>
<rect width="20.1474" height="20.1474" transform="matrix(-0.866025 0.5 0 1 87.4891 40.9255)" fill="#C0BFBF"/>
<rect width="20.1488" height="20.1488" transform="matrix(0.866025 -0.5 0.866025 0.5 52.5933 40.9253)" fill="white"/>
<rect width="20.1474" height="20.1474" transform="matrix(0.866025 0.5 0 1 17.677 61.0721)" fill="#E9E9E9"/>
<rect width="20.1474" height="20.1474" transform="matrix(-0.866025 0.5 0 1 52.5734 61.0721)" fill="#C0BFBF"/>
<rect width="20.1488" height="20.1488" transform="matrix(0.866025 -0.5 0.866025 0.5 17.677 61.0719)" fill="white"/>
<rect width="20.1474" height="20.1474" transform="matrix(0.866025 0.5 0 1 35.1438 71.1465)" fill="#E9E9E9"/>
<rect width="20.1474" height="20.1474" transform="matrix(-0.866025 0.5 0 1 70.04 71.1465)" fill="#C0BFBF"/>
<rect width="20.1488" height="20.1488" transform="matrix(0.866025 -0.5 0.866025 0.5 35.1438 71.1462)" fill="white"/>
<rect width="20.1474" height="20.1474" transform="matrix(0.866025 0.5 0 1 104.953 30.8505)" fill="#E9E9E9"/>
<rect width="20.1474" height="20.1474" transform="matrix(-0.866025 0.5 0 1 139.849 30.8505)" fill="#C0BFBF"/>
<rect width="20.1488" height="20.1488" transform="matrix(0.866025 -0.5 0.866025 0.5 104.953 30.85)" fill="white"/>
<rect width="20.1474" height="20.1474" transform="matrix(0.866025 0.5 0 1 87.5034 40.9265)" fill="#E9E9E9"/>
<rect width="20.1474" height="20.1474" transform="matrix(-0.866025 0.5 0 1 122.4 40.9265)" fill="#C0BFBF"/>
<rect width="20.1488" height="20.1488" transform="matrix(0.866025 -0.5 0.866025 0.5 87.5034 40.926)" fill="white"/>
<rect width="20.1474" height="20.1474" transform="matrix(0.866025 0.5 0 1 70.0107 50.9985)" fill="#E9E9E9"/>
<rect width="20.1474" height="20.1474" transform="matrix(-0.866025 0.5 0 1 104.907 50.9985)" fill="#C0BFBF"/>
<rect width="20.1488" height="20.1488" transform="matrix(0.866025 -0.5 0.866025 0.5 70.0107 50.9982)" fill="white"/>
<rect width="20.1474" height="20.1474" transform="matrix(0.866025 0.5 0 1 131.09 45.9646)" fill="#E9E9E9"/>
<rect width="20.1474" height="20.1474" transform="matrix(-0.866025 0.5 0 1 165.987 45.9646)" fill="#C0BFBF"/>
<rect width="20.1488" height="20.1488" transform="matrix(0.866025 -0.5 0.866025 0.5 131.09 45.9644)" fill="white"/>
<rect width="20.1474" height="20.1474" transform="matrix(0.866025 0.5 0 1 113.641 56.0378)" fill="#E9E9E9"/>
<rect width="20.1474" height="20.1474" transform="matrix(-0.866025 0.5 0 1 148.537 56.0378)" fill="#C0BFBF"/>
<rect width="20.1488" height="20.1488" transform="matrix(0.866025 -0.5 0.866025 0.5 113.641 56.0376)" fill="white"/>
<rect width="20.1474" height="20.1474" transform="matrix(0.866025 0.5 0 1 96.1865 66.1115)" fill="#E9E9E9"/>
<rect width="20.1474" height="20.1474" transform="matrix(-0.866025 0.5 0 1 131.083 66.1115)" fill="#C0BFBF"/>
<rect width="20.1488" height="20.1488" transform="matrix(0.866025 -0.5 0.866025 0.5 96.1865 66.1111)" fill="white"/>
<rect width="20.1474" height="20.1474" transform="matrix(0.866025 0.5 0 1 78.7346 76.1849)" fill="#E9E9E9"/>
<rect width="20.1474" height="20.1474" transform="matrix(-0.866025 0.5 0 1 113.631 76.1849)" fill="#C0BFBF"/>
<rect width="20.1488" height="20.1488" transform="matrix(0.866025 -0.5 0.866025 0.5 78.7346 76.1847)" fill="white"/>
<rect width="20.1474" height="20.1474" transform="matrix(0.866025 0.5 0 1 61.2798 86.2585)" fill="#E9E9E9"/>
<rect width="20.1474" height="20.1474" transform="matrix(-0.866025 0.5 0 1 96.176 86.2585)" fill="#C0BFBF"/>
<rect width="20.1488" height="20.1488" transform="matrix(0.866025 -0.5 0.866025 0.5 61.2798 86.2582)" fill="white"/>
<rect width="20.1474" height="20.1474" transform="matrix(0.866025 0.5 0 1 78.7422 96.3329)" fill="#E9E9E9"/>
<rect width="20.1474" height="20.1474" transform="matrix(-0.866025 0.5 0 1 113.638 96.3329)" fill="#C0BFBF"/>
<rect width="20.1488" height="20.1488" transform="matrix(0.866025 -0.5 0.866025 0.5 78.7422 96.3326)" fill="white"/>
<rect width="20.1474" height="20.1474" transform="matrix(0.866025 0.5 0 1 148.529 56.0371)" fill="#E9E9E9"/>
<rect width="20.1474" height="20.1474" transform="matrix(-0.866025 0.5 0 1 183.426 56.0371)" fill="#C0BFBF"/>
<rect width="20.1488" height="20.1488" transform="matrix(0.866025 -0.5 0.866025 0.5 148.529 56.0367)" fill="white"/>
<rect width="20.1474" height="20.1474" transform="matrix(0.866025 0.5 0 1 165.997 66.1133)" fill="#E9E9E9"/>
<rect width="20.1474" height="20.1474" transform="matrix(-0.866025 0.5 0 1 200.893 66.1133)" fill="#C0BFBF"/>
<rect width="20.1488" height="20.1488" transform="matrix(0.866025 -0.5 0.866025 0.5 165.997 66.113)" fill="white"/>
<rect width="20.1474" height="20.1474" transform="matrix(0.866025 0.5 0 1 148.537 76.1849)" fill="#E9E9E9"/>
<rect width="20.1474" height="20.1474" transform="matrix(-0.866025 0.5 0 1 183.434 76.1849)" fill="#C0BFBF"/>
<rect width="20.1488" height="20.1488" transform="matrix(0.866025 -0.5 0.866025 0.5 148.537 76.1847)" fill="white"/>
<rect width="20.1474" height="20.1474" transform="matrix(0.866025 0.5 0 1 131.098 86.2585)" fill="#E9E9E9"/>
<rect width="20.1474" height="20.1474" transform="matrix(-0.866025 0.5 0 1 165.995 86.2585)" fill="#C0BFBF"/>
<rect width="20.1488" height="20.1488" transform="matrix(0.866025 -0.5 0.866025 0.5 131.098 86.2581)" fill="white"/>
<rect width="20.1474" height="20.1474" transform="matrix(0.866025 0.5 0 1 113.641 96.3336)" fill="#E9E9E9"/>
<rect width="20.1474" height="20.1474" transform="matrix(-0.866025 0.5 0 1 148.537 96.3336)" fill="#C0BFBF"/>
<rect width="20.1488" height="20.1488" transform="matrix(0.866025 -0.5 0.866025 0.5 113.641 96.3334)" fill="white"/>
<rect width="20.1474" height="20.1474" transform="matrix(0.866025 0.5 0 1 96.1917 106.406)" fill="#E9E9E9"/>
<rect width="20.1474" height="20.1474" transform="matrix(-0.866025 0.5 0 1 131.088 106.406)" fill="#C0BFBF"/>
<rect width="20.1488" height="20.1488" transform="matrix(0.866025 -0.5 0.866025 0.5 96.1917 106.406)" fill="white"/>
<rect width="20.1474" height="20.1474" transform="matrix(0.866025 0.5 0 1 157.289 101.371)" fill="#E9E9E9"/>
<rect width="20.1474" height="20.1474" transform="matrix(-0.866025 0.5 0 1 192.186 101.371)" fill="#C0BFBF"/>
<rect width="20.1488" height="20.1488" transform="matrix(0.866025 -0.5 0.866025 0.5 157.289 101.37)" fill="white"/>
<rect width="20.1474" height="20.1474" transform="matrix(0.866025 0.5 0 1 139.869 111.444)" fill="#E9E9E9"/>
<rect width="20.1474" height="20.1474" transform="matrix(-0.866025 0.5 0 1 174.765 111.444)" fill="#C0BFBF"/>
<rect width="20.1488" height="20.1488" transform="matrix(0.866025 -0.5 0.866025 0.5 139.869 111.444)" fill="white"/>
<rect width="20.1474" height="20.1474" transform="matrix(0.866025 0.5 0 1 122.409 121.519)" fill="#E9E9E9"/>
<rect width="20.1474" height="20.1474" transform="matrix(-0.866025 0.5 0 1 157.305 121.519)" fill="#C0BFBF"/>
<rect width="20.1488" height="20.1488" transform="matrix(0.866025 -0.5 0.866025 0.5 122.409 121.519)" fill="white"/>
<rect width="20.1474" height="20.1474" transform="matrix(0.866025 0.5 0 1 192.2 81.2233)" fill="#E9E9E9"/>
<rect width="20.1474" height="20.1474" transform="matrix(-0.866025 0.5 0 1 227.096 81.2233)" fill="#C0BFBF"/>
<rect width="20.1488" height="20.1488" transform="matrix(0.866025 -0.5 0.866025 0.5 192.2 81.2228)" fill="white"/>
<rect width="20.1474" height="20.1474" transform="matrix(0.866025 0.5 0 1 209.685 91.2994)" fill="#E9E9E9"/>
<rect width="20.1474" height="20.1474" transform="matrix(-0.866025 0.5 0 1 244.581 91.2994)" fill="#C0BFBF"/>
<rect width="20.1488" height="20.1488" transform="matrix(0.866025 -0.5 0.866025 0.5 209.685 91.2991)" fill="white"/>
<rect width="20.1474" height="20.1474" transform="matrix(0.866025 0.5 0 1 174.768 111.446)" fill="#E9E9E9"/>
<rect width="20.1474" height="20.1474" transform="matrix(-0.866025 0.5 0 1 209.664 111.446)" fill="#C0BFBF"/>
<rect width="20.1488" height="20.1488" transform="matrix(0.866025 -0.5 0.866025 0.5 174.768 111.446)" fill="white"/>
<rect width="20.1474" height="20.1474" transform="matrix(0.866025 0.5 0 1 139.852 131.592)" fill="#E9E9E9"/>
<rect width="20.1474" height="20.1474" transform="matrix(-0.866025 0.5 0 1 174.748 131.592)" fill="#C0BFBF"/>
<rect width="20.1488" height="20.1488" transform="matrix(0.866025 -0.5 0.866025 0.5 139.852 131.592)" fill="white"/>
<rect width="20.1474" height="20.1474" transform="matrix(0.866025 0.5 0 1 157.319 141.667)" fill="#E9E9E9"/>
<rect width="20.1474" height="20.1474" transform="matrix(-0.866025 0.5 0 1 192.215 141.667)" fill="#C0BFBF"/>
<rect width="20.1488" height="20.1488" transform="matrix(0.866025 -0.5 0.866025 0.5 157.319 141.666)" fill="white"/>
<rect width="20.1474" height="20.1474" transform="matrix(0.866025 0.5 0 1 227.127 101.371)" fill="#E9E9E9"/>
<rect width="20.1474" height="20.1474" transform="matrix(-0.866025 0.5 0 1 262.024 101.371)" fill="#C0BFBF"/>
<rect width="20.1488" height="20.1488" transform="matrix(0.866025 -0.5 0.866025 0.5 227.127 101.37)" fill="white"/>
<rect width="20.1474" height="20.1474" transform="matrix(0.866025 0.5 0 1 209.678 111.447)" fill="#E9E9E9"/>
<rect width="20.1474" height="20.1474" transform="matrix(-0.866025 0.5 0 1 244.574 111.447)" fill="#C0BFBF"/>
<rect width="20.1488" height="20.1488" transform="matrix(0.866025 -0.5 0.866025 0.5 209.678 111.446)" fill="white"/>
<rect width="20.1474" height="20.1474" transform="matrix(0.866025 0.5 0 1 192.186 121.519)" fill="#E9E9E9"/>
<rect width="20.1474" height="20.1474" transform="matrix(-0.866025 0.5 0 1 227.082 121.519)" fill="#C0BFBF"/>
<rect width="20.1488" height="20.1488" transform="matrix(0.866025 -0.5 0.866025 0.5 192.186 121.518)" fill="white"/>
<rect width="20.1474" height="20.1474" transform="matrix(0.866025 0.5 0 1 253.284 116.485)" fill="#E9E9E9"/>
<rect width="20.1474" height="20.1474" transform="matrix(-0.866025 0.5 0 1 288.18 116.485)" fill="#C0BFBF"/>
<rect width="20.1488" height="20.1488" transform="matrix(0.866025 -0.5 0.866025 0.5 253.284 116.484)" fill="white"/>
<rect width="20.1474" height="20.1474" transform="matrix(0.866025 0.5 0 1 218.373 136.632)" fill="#E9E9E9"/>
<rect width="20.1474" height="20.1474" transform="matrix(-0.866025 0.5 0 1 253.269 136.632)" fill="#C0BFBF"/>
<rect width="20.1488" height="20.1488" transform="matrix(0.866025 -0.5 0.866025 0.5 218.373 136.632)" fill="white"/>
<rect width="20.1474" height="20.1474" transform="matrix(0.866025 0.5 0 1 183.492 156.781)" fill="#E9E9E9"/>
<rect width="20.1474" height="20.1474" transform="matrix(-0.866025 0.5 0 1 218.388 156.781)" fill="#C0BFBF"/>
<rect width="20.1488" height="20.1488" transform="matrix(0.866025 -0.5 0.866025 0.5 183.492 156.78)" fill="white"/>
<rect width="20.1474" height="20.1474" transform="matrix(0.866025 0.5 0 1 270.768 126.561)" fill="#E9E9E9"/>
<rect width="20.1474" height="20.1474" transform="matrix(-0.866025 0.5 0 1 305.664 126.561)" fill="#C0BFBF"/>
<rect width="20.1488" height="20.1488" transform="matrix(0.866025 -0.5 0.866025 0.5 270.768 126.561)" fill="white"/>
<rect width="20.1474" height="20.1474" transform="matrix(0.866025 0.5 0 1 235.852 146.707)" fill="#E9E9E9"/>
<rect width="20.1474" height="20.1474" transform="matrix(-0.866025 0.5 0 1 270.748 146.707)" fill="#C0BFBF"/>
<rect width="20.1488" height="20.1488" transform="matrix(0.866025 -0.5 0.866025 0.5 235.852 146.707)" fill="white"/>
<rect width="20.1474" height="20.1474" transform="matrix(0.866025 0.5 0 1 200.936 166.854)" fill="#E9E9E9"/>
<rect width="20.1474" height="20.1474" transform="matrix(-0.866025 0.5 0 1 235.832 166.854)" fill="#C0BFBF"/>
<rect width="20.1488" height="20.1488" transform="matrix(0.866025 -0.5 0.866025 0.5 200.936 166.853)" fill="white"/>
<rect width="20.1474" height="20.1474" transform="matrix(0.866025 0.5 0 1 288.211 136.632)" fill="#E9E9E9"/>
<rect width="20.1474" height="20.1474" transform="matrix(-0.866025 0.5 0 1 323.107 136.632)" fill="#C0BFBF"/>
<rect width="20.1488" height="20.1488" transform="matrix(0.866025 -0.5 0.866025 0.5 288.211 136.631)" fill="white"/>
<rect width="20.1474" height="20.1474" transform="matrix(0.866025 0.5 0 1 270.768 146.71)" fill="#E9E9E9"/>
<rect width="20.1474" height="20.1474" transform="matrix(-0.866025 0.5 0 1 305.664 146.71)" fill="#C0BFBF"/>
<rect width="20.1488" height="20.1488" transform="matrix(0.866025 -0.5 0.866025 0.5 270.768 146.709)" fill="white"/>
<rect width="20.1474" height="20.1474" transform="matrix(0.866025 0.5 0 1 253.269 156.78)" fill="#E9E9E9"/>
<rect width="20.1474" height="20.1474" transform="matrix(-0.866025 0.5 0 1 288.166 156.78)" fill="#C0BFBF"/>
<rect width="20.1488" height="20.1488" transform="matrix(0.866025 -0.5 0.866025 0.5 253.269 156.78)" fill="white"/>
<rect width="20.1474" height="20.1474" transform="matrix(0.866025 0.5 0 1 235.818 166.853)" fill="#E9E9E9"/>
<rect width="20.1474" height="20.1474" transform="matrix(-0.866025 0.5 0 1 270.715 166.853)" fill="#C0BFBF"/>
<rect width="20.1488" height="20.1488" transform="matrix(0.866025 -0.5 0.866025 0.5 235.818 166.853)" fill="white"/>
<rect width="20.1474" height="20.1474" transform="matrix(0.866025 0.5 0 1 218.402 176.928)" fill="#E9E9E9"/>
<rect width="20.1474" height="20.1474" transform="matrix(-0.866025 0.5 0 1 253.299 176.928)" fill="#C0BFBF"/>
<rect width="20.1488" height="20.1488" transform="matrix(0.866025 -0.5 0.866025 0.5 218.402 176.928)" fill="white"/>
<rect width="20.1474" height="20.1474" transform="matrix(0.866025 0.5 0 1 288.166 172.528)" fill="#E9E9E9"/>
<rect width="20.1474" height="20.1474" transform="matrix(-0.866025 0.5 0 1 323.062 172.528)" fill="#C0BFBF"/>
<rect width="20.1488" height="20.1488" transform="matrix(0.866025 -0.5 0.866025 0.5 288.166 172.528)" fill="white"/>
<rect width="20.1474" height="20.1474" transform="matrix(0.866025 0.5 0 1 305.604 182.601)" fill="#E9E9E9"/>
<rect width="20.1474" height="20.1474" transform="matrix(-0.866025 0.5 0 1 340.5 182.601)" fill="#C0BFBF"/>
<rect width="20.1488" height="20.1488" transform="matrix(0.866025 -0.5 0.866025 0.5 305.604 182.6)" fill="white"/>
<rect width="20.1474" height="20.1474" transform="matrix(0.866025 0.5 0 1 323.072 192.677)" fill="#E9E9E9"/>
<rect width="20.1474" height="20.1474" transform="matrix(-0.866025 0.5 0 1 357.969 192.677)" fill="#C0BFBF"/>
<rect width="20.1488" height="20.1488" transform="matrix(0.866025 -0.5 0.866025 0.5 323.072 192.677)" fill="white"/>
<rect width="20.1474" height="20.1474" transform="matrix(0.866025 0.5 0 1 338.656 212.186)" fill="#E9E9E9"/>
<rect width="20.1474" height="20.1474" transform="matrix(-0.866025 0.5 0 1 373.552 212.186)" fill="#C0BFBF"/>
<rect width="20.1488" height="20.1488" transform="matrix(0.866025 -0.5 0.866025 0.5 338.656 212.186)" fill="white"/>
<rect width="20.1474" height="20.1474" transform="matrix(0.866025 0.5 0 1 321.236 222.26)" fill="#E9E9E9"/>
<rect width="20.1474" height="20.1474" transform="matrix(-0.866025 0.5 0 1 356.132 222.26)" fill="#C0BFBF"/>
<rect width="20.1488" height="20.1488" transform="matrix(0.866025 -0.5 0.866025 0.5 321.236 222.259)" fill="white"/>
<rect width="20.1474" height="20.1474" transform="matrix(0.866025 0.5 0 1 303.775 232.334)" fill="#E9E9E9"/>
<rect width="20.1474" height="20.1474" transform="matrix(-0.866025 0.5 0 1 338.671 232.334)" fill="#C0BFBF"/>
<rect width="20.1488" height="20.1488" transform="matrix(0.866025 -0.5 0.866025 0.5 303.775 232.334)" fill="white"/>
<rect width="20.1474" height="20.1474" transform="matrix(0.866025 0.5 0 1 373.566 192.039)" fill="#E9E9E9"/>
<rect width="20.1474" height="20.1474" transform="matrix(-0.866025 0.5 0 1 408.463 192.039)" fill="#C0BFBF"/>
<rect width="20.1488" height="20.1488" transform="matrix(0.866025 -0.5 0.866025 0.5 373.566 192.038)" fill="white"/>
<rect width="20.1474" height="20.1474" transform="matrix(0.866025 0.5 0 1 391.051 202.115)" fill="#E9E9E9"/>
<rect width="20.1474" height="20.1474" transform="matrix(-0.866025 0.5 0 1 425.947 202.115)" fill="#C0BFBF"/>
<rect width="20.1488" height="20.1488" transform="matrix(0.866025 -0.5 0.866025 0.5 391.051 202.114)" fill="white"/>
<rect width="20.1474" height="20.1474" transform="matrix(0.866025 0.5 0 1 356.135 222.261)" fill="#E9E9E9"/>
<rect width="20.1474" height="20.1474" transform="matrix(-0.866025 0.5 0 1 391.031 222.261)" fill="#C0BFBF"/>
<rect width="20.1488" height="20.1488" transform="matrix(0.866025 -0.5 0.866025 0.5 356.135 222.261)" fill="white"/>
<rect width="20.1474" height="20.1474" transform="matrix(0.866025 0.5 0 1 321.219 242.408)" fill="#E9E9E9"/>
<rect width="20.1474" height="20.1474" transform="matrix(-0.866025 0.5 0 1 356.115 242.408)" fill="#C0BFBF"/>
<rect width="20.1488" height="20.1488" transform="matrix(0.866025 -0.5 0.866025 0.5 321.219 242.407)" fill="white"/>
<rect width="20.1474" height="20.1474" transform="matrix(0.866025 0.5 0 1 338.685 252.482)" fill="#E9E9E9"/>
<rect width="20.1474" height="20.1474" transform="matrix(-0.866025 0.5 0 1 373.582 252.482)" fill="#C0BFBF"/>
<rect width="20.1488" height="20.1488" transform="matrix(0.866025 -0.5 0.866025 0.5 338.685 252.482)" fill="white"/>
<rect width="20.1474" height="20.1474" transform="matrix(0.866025 0.5 0 1 408.494 212.186)" fill="#E9E9E9"/>
<rect width="20.1474" height="20.1474" transform="matrix(-0.866025 0.5 0 1 443.39 212.186)" fill="#C0BFBF"/>
<rect width="20.1488" height="20.1488" transform="matrix(0.866025 -0.5 0.866025 0.5 408.494 212.186)" fill="white"/>
<rect width="20.1474" height="20.1474" transform="matrix(0.866025 0.5 0 1 391.045 222.262)" fill="#E9E9E9"/>
<rect width="20.1474" height="20.1474" transform="matrix(-0.866025 0.5 0 1 425.941 222.262)" fill="#C0BFBF"/>
<rect width="20.1488" height="20.1488" transform="matrix(0.866025 -0.5 0.866025 0.5 391.045 222.262)" fill="white"/>
<rect width="20.1474" height="20.1474" transform="matrix(0.866025 0.5 0 1 373.552 232.334)" fill="#E9E9E9"/>
<rect width="20.1474" height="20.1474" transform="matrix(-0.866025 0.5 0 1 408.448 232.334)" fill="#C0BFBF"/>
<rect width="20.1488" height="20.1488" transform="matrix(0.866025 -0.5 0.866025 0.5 373.552 232.333)" fill="white"/>
<rect width="20.1474" height="20.1474" transform="matrix(0.866025 0.5 0 1 434.632 227.3)" fill="#E9E9E9"/>
<rect width="20.1474" height="20.1474" transform="matrix(-0.866025 0.5 0 1 469.528 227.3)" fill="#C0BFBF"/>
<rect width="20.1488" height="20.1488" transform="matrix(0.866025 -0.5 0.866025 0.5 434.632 227.3)" fill="white"/>
<rect width="20.1474" height="20.1474" transform="matrix(0.866025 0.5 0 1 417.182 237.373)" fill="#E9E9E9"/>
<rect width="20.1474" height="20.1474" transform="matrix(-0.866025 0.5 0 1 452.078 237.373)" fill="#C0BFBF"/>
<rect width="20.1488" height="20.1488" transform="matrix(0.866025 -0.5 0.866025 0.5 417.182 237.373)" fill="white"/>
<rect width="20.1474" height="20.1474" transform="matrix(0.866025 0.5 0 1 399.728 247.447)" fill="#E9E9E9"/>
<rect width="20.1474" height="20.1474" transform="matrix(-0.866025 0.5 0 1 434.624 247.447)" fill="#C0BFBF"/>
<rect width="20.1488" height="20.1488" transform="matrix(0.866025 -0.5 0.866025 0.5 399.728 247.446)" fill="white"/>
<rect width="20.1474" height="20.1474" transform="matrix(0.866025 0.5 0 1 382.276 257.52)" fill="#E9E9E9"/>
<rect width="20.1474" height="20.1474" transform="matrix(-0.866025 0.5 0 1 417.172 257.52)" fill="#C0BFBF"/>
<rect width="20.1488" height="20.1488" transform="matrix(0.866025 -0.5 0.866025 0.5 382.276 257.52)" fill="white"/>
<rect width="20.1474" height="20.1474" transform="matrix(0.866025 0.5 0 1 364.821 267.594)" fill="#E9E9E9"/>
<rect width="20.1474" height="20.1474" transform="matrix(-0.866025 0.5 0 1 399.717 267.594)" fill="#C0BFBF"/>
<rect width="20.1488" height="20.1488" transform="matrix(0.866025 -0.5 0.866025 0.5 364.821 267.594)" fill="white"/>
<rect width="20.1474" height="20.1474" transform="matrix(0.866025 0.5 0 1 382.283 277.668)" fill="#E9E9E9"/>
<rect width="20.1474" height="20.1474" transform="matrix(-0.866025 0.5 0 1 417.179 277.668)" fill="#C0BFBF"/>
<rect width="20.1488" height="20.1488" transform="matrix(0.866025 -0.5 0.866025 0.5 382.283 277.668)" fill="white"/>
<rect width="20.1474" height="20.1474" transform="matrix(0.866025 0.5 0 1 452.071 237.372)" fill="#E9E9E9"/>
<rect width="20.1474" height="20.1474" transform="matrix(-0.866025 0.5 0 1 486.967 237.372)" fill="#C0BFBF"/>
<rect width="20.1488" height="20.1488" transform="matrix(0.866025 -0.5 0.866025 0.5 452.071 237.372)" fill="white"/>
<rect width="20.1474" height="20.1474" transform="matrix(0.866025 0.5 0 1 469.538 247.449)" fill="#E9E9E9"/>
<rect width="20.1474" height="20.1474" transform="matrix(-0.866025 0.5 0 1 504.434 247.449)" fill="#C0BFBF"/>
<rect width="20.1488" height="20.1488" transform="matrix(0.866025 -0.5 0.866025 0.5 469.538 247.448)" fill="white"/>
<rect width="20.1474" height="20.1474" transform="matrix(0.866025 0.5 0 1 452.079 257.52)" fill="#E9E9E9"/>
<rect width="20.1474" height="20.1474" transform="matrix(-0.866025 0.5 0 1 486.975 257.52)" fill="#C0BFBF"/>
<rect width="20.1488" height="20.1488" transform="matrix(0.866025 -0.5 0.866025 0.5 452.079 257.52)" fill="white"/>
<rect width="20.1474" height="20.1474" transform="matrix(0.866025 0.5 0 1 434.64 267.594)" fill="#E9E9E9"/>
<rect width="20.1474" height="20.1474" transform="matrix(-0.866025 0.5 0 1 469.536 267.594)" fill="#C0BFBF"/>
<rect width="20.1488" height="20.1488" transform="matrix(0.866025 -0.5 0.866025 0.5 434.64 267.594)" fill="white"/>
<rect width="20.1474" height="20.1474" transform="matrix(0.866025 0.5 0 1 417.182 277.669)" fill="#E9E9E9"/>
<rect width="20.1474" height="20.1474" transform="matrix(-0.866025 0.5 0 1 452.078 277.669)" fill="#C0BFBF"/>
<rect width="20.1488" height="20.1488" transform="matrix(0.866025 -0.5 0.866025 0.5 417.182 277.669)" fill="white"/>
<rect width="20.1474" height="20.1474" transform="matrix(0.866025 0.5 0 1 399.733 287.742)" fill="#E9E9E9"/>
<rect width="20.1474" height="20.1474" transform="matrix(-0.866025 0.5 0 1 434.629 287.742)" fill="#C0BFBF"/>
<rect width="20.1488" height="20.1488" transform="matrix(0.866025 -0.5 0.866025 0.5 399.733 287.742)" fill="white"/>
<rect width="20.1474" height="20.1474" transform="matrix(0.866025 0.5 0 1 460.831 282.706)" fill="#E9E9E9"/>
<rect width="20.1474" height="20.1474" transform="matrix(-0.866025 0.5 0 1 495.727 282.706)" fill="#C0BFBF"/>
<rect width="20.1488" height="20.1488" transform="matrix(0.866025 -0.5 0.866025 0.5 460.831 282.706)" fill="white"/>
<rect width="20.1474" height="20.1474" transform="matrix(0.866025 0.5 0 1 443.411 292.78)" fill="#E9E9E9"/>
<rect width="20.1474" height="20.1474" transform="matrix(-0.866025 0.5 0 1 478.307 292.78)" fill="#C0BFBF"/>
<rect width="20.1488" height="20.1488" transform="matrix(0.866025 -0.5 0.866025 0.5 443.411 292.78)" fill="white"/>
<rect width="20.1474" height="20.1474" transform="matrix(0.866025 0.5 0 1 425.95 302.854)" fill="#E9E9E9"/>
<rect width="20.1474" height="20.1474" transform="matrix(-0.866025 0.5 0 1 460.846 302.854)" fill="#C0BFBF"/>
<rect width="20.1488" height="20.1488" transform="matrix(0.866025 -0.5 0.866025 0.5 425.95 302.854)" fill="white"/>
<rect width="20.1474" height="20.1474" transform="matrix(0.866025 0.5 0 1 495.741 262.559)" fill="#E9E9E9"/>
<rect width="20.1474" height="20.1474" transform="matrix(-0.866025 0.5 0 1 530.637 262.559)" fill="#C0BFBF"/>
<rect width="20.1488" height="20.1488" transform="matrix(0.866025 -0.5 0.866025 0.5 495.741 262.558)" fill="white"/>
<rect width="20.1474" height="20.1474" transform="matrix(0.866025 0.5 0 1 513.226 272.635)" fill="#E9E9E9"/>
<rect width="20.1474" height="20.1474" transform="matrix(-0.866025 0.5 0 1 548.122 272.635)" fill="#C0BFBF"/>
<rect width="20.1488" height="20.1488" transform="matrix(0.866025 -0.5 0.866025 0.5 513.226 272.635)" fill="white"/>
<rect width="20.1474" height="20.1474" transform="matrix(0.866025 0.5 0 1 478.309 292.781)" fill="#E9E9E9"/>
<rect width="20.1474" height="20.1474" transform="matrix(-0.866025 0.5 0 1 513.206 292.781)" fill="#C0BFBF"/>
<rect width="20.1488" height="20.1488" transform="matrix(0.866025 -0.5 0.866025 0.5 478.309 292.781)" fill="white"/>
<rect width="20.1474" height="20.1474" transform="matrix(0.866025 0.5 0 1 443.393 312.928)" fill="#E9E9E9"/>
<rect width="20.1474" height="20.1474" transform="matrix(-0.866025 0.5 0 1 478.29 312.928)" fill="#C0BFBF"/>
<rect width="20.1488" height="20.1488" transform="matrix(0.866025 -0.5 0.866025 0.5 443.393 312.927)" fill="white"/>
<rect width="20.1474" height="20.1474" transform="matrix(0.866025 0.5 0 1 460.86 323.002)" fill="#E9E9E9"/>
<rect width="20.1474" height="20.1474" transform="matrix(-0.866025 0.5 0 1 495.756 323.002)" fill="#C0BFBF"/>
<rect width="20.1488" height="20.1488" transform="matrix(0.866025 -0.5 0.866025 0.5 460.86 323.002)" fill="white"/>
<rect width="20.1474" height="20.1474" transform="matrix(0.866025 0.5 0 1 530.669 282.706)" fill="#E9E9E9"/>
<rect width="20.1474" height="20.1474" transform="matrix(-0.866025 0.5 0 1 565.565 282.706)" fill="#C0BFBF"/>
<rect width="20.1488" height="20.1488" transform="matrix(0.866025 -0.5 0.866025 0.5 530.669 282.706)" fill="white"/>
<rect width="20.1474" height="20.1474" transform="matrix(0.866025 0.5 0 1 513.219 292.782)" fill="#E9E9E9"/>
<rect width="20.1474" height="20.1474" transform="matrix(-0.866025 0.5 0 1 548.115 292.782)" fill="#C0BFBF"/>
<rect width="20.1488" height="20.1488" transform="matrix(0.866025 -0.5 0.866025 0.5 513.219 292.782)" fill="white"/>
<rect width="20.1474" height="20.1474" transform="matrix(0.866025 0.5 0 1 495.727 302.854)" fill="#E9E9E9"/>
<rect width="20.1474" height="20.1474" transform="matrix(-0.866025 0.5 0 1 530.623 302.854)" fill="#C0BFBF"/>
<rect width="20.1488" height="20.1488" transform="matrix(0.866025 -0.5 0.866025 0.5 495.727 302.854)" fill="white"/>
<rect width="20.1474" height="20.1474" transform="matrix(0.866025 0.5 0 1 556.825 297.82)" fill="#E9E9E9"/>
<rect width="20.1474" height="20.1474" transform="matrix(-0.866025 0.5 0 1 591.721 297.82)" fill="#C0BFBF"/>
<rect width="20.1488" height="20.1488" transform="matrix(0.866025 -0.5 0.866025 0.5 556.825 297.82)" fill="white"/>
<rect width="20.1474" height="20.1474" transform="matrix(0.866025 0.5 0 1 539.358 307.891)" fill="#E9E9E9"/>
<rect width="20.1474" height="20.1474" transform="matrix(-0.866025 0.5 0 1 574.254 307.891)" fill="#C0BFBF"/>
<rect width="20.1488" height="20.1488" transform="matrix(0.866025 -0.5 0.866025 0.5 539.358 307.891)" fill="white"/>
<rect width="20.1474" height="20.1474" transform="matrix(0.866025 0.5 0 1 521.915 317.968)" fill="#E9E9E9"/>
<rect width="20.1474" height="20.1474" transform="matrix(-0.866025 0.5 0 1 556.811 317.968)" fill="#C0BFBF"/>
<rect width="20.1488" height="20.1488" transform="matrix(0.866025 -0.5 0.866025 0.5 521.915 317.967)" fill="white"/>
<rect width="20.1474" height="20.1474" transform="matrix(0.866025 0.5 0 1 487.034 338.116)" fill="#E9E9E9"/>
<rect width="20.1474" height="20.1474" transform="matrix(-0.866025 0.5 0 1 521.93 338.116)" fill="#C0BFBF"/>
<rect width="20.1488" height="20.1488" transform="matrix(0.866025 -0.5 0.866025 0.5 487.034 338.116)" fill="white"/>
<rect width="20.1474" height="20.1474" transform="matrix(0.866025 0.5 0 1 574.31 307.896)" fill="#E9E9E9"/>
<rect width="20.1474" height="20.1474" transform="matrix(-0.866025 0.5 0 1 609.206 307.896)" fill="#C0BFBF"/>
<rect width="20.1488" height="20.1488" transform="matrix(0.866025 -0.5 0.866025 0.5 574.31 307.896)" fill="white"/>
<rect width="20.1474" height="20.1474" transform="matrix(0.866025 0.5 0 1 539.393 328.043)" fill="#E9E9E9"/>
<rect width="20.1474" height="20.1474" transform="matrix(-0.866025 0.5 0 1 574.29 328.043)" fill="#C0BFBF"/>
<rect width="20.1488" height="20.1488" transform="matrix(0.866025 -0.5 0.866025 0.5 539.393 328.042)" fill="white"/>
<rect width="20.1474" height="20.1474" transform="matrix(0.866025 0.5 0 1 504.477 348.189)" fill="#E9E9E9"/>
<rect width="20.1474" height="20.1474" transform="matrix(-0.866025 0.5 0 1 539.373 348.189)" fill="#C0BFBF"/>
<rect width="20.1488" height="20.1488" transform="matrix(0.866025 -0.5 0.866025 0.5 504.477 348.189)" fill="white"/>
<rect width="20.1474" height="20.1474" transform="matrix(0.866025 0.5 0 1 591.753 317.967)" fill="#E9E9E9"/>
<rect width="20.1474" height="20.1474" transform="matrix(-0.866025 0.5 0 1 626.649 317.967)" fill="#C0BFBF"/>
<rect width="20.1488" height="20.1488" transform="matrix(0.866025 -0.5 0.866025 0.5 591.753 317.967)" fill="white"/>
<rect width="20.1474" height="20.1474" transform="matrix(0.866025 0.5 0 1 556.811 338.115)" fill="#E9E9E9"/>
<rect width="20.1474" height="20.1474" transform="matrix(-0.866025 0.5 0 1 591.707 338.115)" fill="#C0BFBF"/>
<rect width="20.1488" height="20.1488" transform="matrix(0.866025 -0.5 0.866025 0.5 556.811 338.115)" fill="white"/>
<rect width="20.1474" height="20.1474" transform="matrix(0.866025 0.5 0 1 539.36 348.189)" fill="#E9E9E9"/>
<rect width="20.1474" height="20.1474" transform="matrix(-0.866025 0.5 0 1 574.256 348.189)" fill="#C0BFBF"/>
<rect width="20.1488" height="20.1488" transform="matrix(0.866025 -0.5 0.866025 0.5 539.36 348.188)" fill="white"/>
<rect width="20.1474" height="20.1474" transform="matrix(0.866025 0.5 0 1 521.944 358.264)" fill="#E9E9E9"/>
<rect width="20.1474" height="20.1474" transform="matrix(-0.866025 0.5 0 1 556.84 358.264)" fill="#C0BFBF"/>
<rect width="20.1488" height="20.1488" transform="matrix(0.866025 -0.5 0.866025 0.5 521.944 358.263)" fill="white"/>
</svg>
