<svg width="251" height="289" viewBox="0 0 251 289" fill="none" xmlns="http://www.w3.org/2000/svg">
<rect width="144.027" height="144.027" transform="matrix(0.866025 0.5 0 1 0.811035 72.2233)" fill="black"/>
<path d="M63.1766 123.428L13.9734 151.836V95.021L63.1766 123.428Z" fill="white"/>
<path d="M112.38 151.836L63.1768 180.243V123.429L112.38 151.836Z" fill="white"/>
<path d="M63.1766 180.243L13.9734 208.651V151.836L63.1766 180.243Z" fill="white"/>
<path d="M112.38 265.466L63.1768 180.244V237.059L112.38 265.466Z" fill="white"/>
<rect width="144.027" height="144.027" transform="matrix(-0.866025 0.5 0 1 250.29 72.2233)" fill="black"/>
<rect width="144.036" height="144.036" transform="matrix(0.866025 -0.5 0.866025 0.5 0.811035 72.2233)" fill="black"/>
<path d="M174.762 43.8158L76.3554 43.8158L125.559 15.4083L174.762 43.8158Z" fill="white"/>
<path d="M223.965 72.2233L125.559 72.2233L174.762 43.8158L223.965 72.2233Z" fill="white"/>
<path d="M125.559 72.2233L27.1522 72.2233L76.3555 43.8158L125.559 72.2233Z" fill="white"/>
<path d="M125.559 129.038L125.559 72.2233L76.3555 100.631L125.559 129.038Z" fill="white"/>
<path d="M187.924 123.428L138.721 208.651V151.836L187.924 123.428Z" fill="white"/>
<path d="M237.127 95.0209L187.924 180.243V123.428L237.127 95.0209Z" fill="white"/>
<path d="M187.924 180.243L138.721 265.466V208.651L187.924 180.243Z" fill="white"/>
<path d="M237.127 208.651L187.924 180.243V237.058L237.127 208.651Z" fill="white"/>
</svg>
