<svg width="161" height="38" viewBox="0 0 161 38" fill="none" xmlns="http://www.w3.org/2000/svg">
<path d="M18.676 0.0189209L0 18.6949V0.0189209L18.676 0.0189209Z" fill="black"/>
<path d="M37.352 0.0188599L18.676 18.6949V0.0188599L37.352 0.0188599Z" fill="black"/>
<path d="M18.676 18.6949L0 37.3709V18.6949L18.676 18.6949Z" fill="black"/>
<path d="M37.352 37.3708L18.676 18.6948V37.3708L37.352 37.3708Z" fill="black"/>
<path d="M50.554 37.3708L41.216 0.0188506L59.892 0.0188522L50.554 37.3708Z" fill="black"/>
<path d="M69.23 37.3708L59.892 0.0188506L78.568 0.0188522L69.23 37.3708Z" fill="black"/>
<rect x="82.432" width="16.422" height="37.352" fill="black"/>
<rect x="103.362" y="0.0377808" width="16.422" height="37.352" fill="black"/>
<rect x="123.648" y="0.0188599" width="37.352" height="18.676" fill="black"/>
<path d="M123.648 37.3709L142.324 18.6949L123.648 18.6949L123.648 37.3709Z" fill="black"/>
<path d="M142.324 18.6948L161 37.3708L142.324 37.3708L142.324 18.6948Z" fill="black"/>
</svg>
