<svg width="328" height="328" viewBox="0 0 328 328" fill="none" xmlns="http://www.w3.org/2000/svg">
<path d="M312.228 168.371L321.092 163.556L320.979 166.221L314.443 169.664L314.441 169.706L320.661 173.69L320.548 176.355L312.124 170.805L306.082 170.549L306.185 168.115L312.228 168.371Z" fill="black"/>
<path d="M308.125 177.965L320.251 179.657L319.914 182.07L308.6 180.491L307.269 181.514L306.671 185.798L307.671 187.146L318.985 188.725L318.648 191.138L306.523 189.446L304.429 186.673L305.352 180.059L308.125 177.965Z" fill="black"/>
<path d="M315.008 198.202L316.032 193.913L318.054 194.395L315.441 205.344L313.419 204.862L314.443 200.572L302.166 197.643L302.732 195.273L315.008 198.202Z" fill="black"/>
<path d="M302.886 204.598L312.307 207.813L313.786 210.825L311.439 217.702L308.427 219.181L299.006 215.966L297.527 212.954L299.874 206.077L302.886 204.598ZM299.922 212.44L300.648 213.952L308.359 216.584L309.859 215.831L311.392 211.339L310.665 209.827L302.954 207.195L301.454 207.948L299.922 212.44Z" fill="black"/>
<path d="M306.668 229.415L305.571 231.59L299.927 228.744L298.745 231.088L302.753 237.178L301.533 239.597L296.909 232.49L288.247 233.296L289.495 230.821L296.87 230.142L298.052 227.798L292.446 224.971L293.543 222.796L306.668 229.415Z" fill="black"/>
<path d="M297.791 245.811L296.565 247.769L281.286 244.473L282.601 242.372L286.224 243.154L289.132 238.508L286.846 235.591L288.161 233.49L297.791 245.811ZM288.251 243.754L294.668 245.219L294.69 245.184L290.547 240.088L288.251 243.754Z" fill="black"/>
<path d="M292.535 254.218L291.011 256.145L281.105 250.83L281.066 250.879L287.807 260.197L286.595 261.729L276.039 257.238L275.986 257.303L283.456 265.699L281.933 267.627L272.277 256.137L273.736 254.292L284.299 258.709L284.338 258.659L277.669 249.318L279.128 247.473L292.535 254.218Z" fill="black"/>
<path d="M276.6 273.081L274.978 274.726L260.779 268.192L262.519 266.427L265.886 267.976L269.733 264.073L268.135 260.728L269.874 258.963L276.6 273.081ZM267.735 269.002L273.68 271.825L273.71 271.795L270.771 265.921L267.735 269.002Z" fill="black"/>
<path d="M269.055 280.488L267.189 282.054L263.126 277.212L258.01 281.504L262.073 286.347L260.207 287.912L250.758 276.652L252.624 275.086L256.66 279.896L261.776 275.603L257.739 270.793L259.606 269.227L269.055 280.488Z" fill="black"/>
<path d="M253.44 292.762L251.533 294.065L238.851 284.928L240.897 283.53L243.904 285.697L248.429 282.604L247.502 279.015L249.548 277.616L253.44 292.762ZM245.522 287.058L250.816 290.969L250.85 290.946L249.093 284.617L245.522 287.058Z" fill="black"/>
<path d="M229.998 295.288L227.705 291.132L229.838 289.956L231.847 293.597L233.972 294.319L238.164 292.006L235.355 286.913L237.487 285.736L244.588 298.608L236.755 302.929L233.834 302.069L231.653 298.116L232.255 296.033L229.998 295.288ZM239.138 293.772L234.394 296.389L234.064 297.53L235.575 300.27L236.717 300.599L241.461 297.982L239.138 293.772Z" fill="black"/>
<path d="M226.985 307.603L224.864 308.519L214.159 297.13L216.434 296.147L218.973 298.848L224.005 296.675L223.78 292.976L226.055 291.993L226.985 307.603ZM220.301 300.494L224.751 305.343L224.789 305.326L224.273 298.779L220.301 300.494Z" fill="black"/>
<path d="M205.17 306.344L212.492 313.282L209.923 314L204.627 308.85L204.586 308.861L202.723 316.01L200.154 316.727L202.824 306.999L201.197 301.173L203.544 300.518L205.17 306.344Z" fill="black"/>
<path d="M194.837 305.384L196.947 317.444L194.547 317.864L192.579 306.611L191.197 305.658L186.936 306.404L185.959 307.769L187.928 319.022L185.528 319.441L183.419 307.382L185.416 304.538L191.994 303.387L194.837 305.384Z" fill="black"/>
<path d="M177.963 318.125L182.359 317.768L182.527 319.841L171.308 320.751L171.139 318.679L175.535 318.322L174.514 305.743L176.942 305.546L177.963 318.125Z" fill="black"/>
<path d="M167.623 308.59L167.47 318.543L165.06 320.879L157.795 320.767L155.459 318.357L155.613 308.405L158.022 306.069L165.287 306.181L167.623 308.59ZM159.25 308.188L158.035 309.345L157.909 317.492L159.088 318.687L163.833 318.76L165.048 317.602L165.174 309.455L163.995 308.261L159.25 308.188Z" fill="black"/>
<path d="M145.286 319.858L142.877 319.493L143.823 313.243L141.228 312.851L136.69 318.557L134.011 318.151L139.323 311.543L135.858 303.564L138.599 303.978L141.542 310.774L144.137 311.167L145.077 304.959L147.485 305.323L145.286 319.858Z" fill="black"/>
<path d="M126.876 316.493L124.633 315.94L122.996 300.395L125.402 300.989L125.79 304.675L131.111 305.988L133.17 302.905L135.576 303.498L126.876 316.493ZM125.853 306.788L126.464 313.342L126.505 313.352L130.053 307.825L125.853 306.788Z" fill="black"/>
<path d="M117.243 314.101L114.939 313.246L116.938 302.184L116.879 302.162L110.096 311.45L108.265 310.77L109.279 299.342L109.2 299.313L103.52 309.01L101.216 308.156L109.164 295.425L111.369 296.243L110.429 307.653L110.488 307.675L117.315 298.449L119.52 299.267L117.243 314.101Z" fill="black"/>
<path d="M94.4427 304.781L92.3763 303.748L94.1944 288.224L96.4111 289.331L95.98 293.013L100.883 295.463L103.568 292.908L105.785 294.015L94.4427 304.781ZM95.5766 295.089L94.733 301.616L94.7706 301.635L99.4464 297.022L95.5766 295.089Z" fill="black"/>
<path d="M84.9689 299.837L82.9089 298.537L86.2825 293.191L80.6352 289.627L77.2615 294.973L75.2015 293.673L83.0472 281.241L85.1072 282.541L81.756 287.851L87.4033 291.416L90.7545 286.106L92.8146 287.406L84.9689 299.837Z" fill="black"/>
<path d="M68.6349 288.82L66.8073 287.407L71.5944 272.528L73.5549 274.043L72.4197 277.572L76.7561 280.924L79.885 278.937L81.8455 280.452L68.6349 288.82ZM71.6224 279.53L69.532 285.771L69.5652 285.797L75.045 282.176L71.6224 279.53Z" fill="black"/>
<path d="M58.9748 267.232L62.2318 263.78L64.0036 265.452L61.1501 268.476L61.1114 270.721L64.594 274.006L68.586 269.775L70.3578 271.447L60.2698 282.139L53.7629 276L53.6892 272.957L56.7877 269.673L58.9548 269.61L58.9748 267.232ZM63.2105 275.473L59.2697 271.755L58.0822 271.789L55.9349 274.065L55.9695 275.253L59.9103 278.971L63.2105 275.473Z" fill="black"/>
<path d="M46.3739 268.225L44.8507 266.488L52.3993 252.801L54.0332 254.664L52.2431 257.91L55.8571 262.03L59.3088 260.679L60.9427 262.542L46.3739 268.225ZM51.0855 259.679L47.8384 265.404L47.8661 265.436L53.938 262.932L51.0855 259.679Z" fill="black"/>
<path d="M40.915 247.222L36.5993 256.34L35.1184 254.122L38.3641 247.486L38.3408 247.451L30.9674 247.905L29.4866 245.687L39.5624 245.196L44.5924 241.838L45.945 243.864L40.915 247.222Z" fill="black"/>
<path d="M38.5296 236.967L27.7233 242.722L26.5783 240.572L36.6618 235.202L37.1371 233.593L35.1038 229.774L33.5032 229.271L23.4198 234.64L22.2748 232.49L33.0811 226.736L36.4046 227.749L39.5435 233.644L38.5296 236.967Z" fill="black"/>
<path d="M21.2081 224.962L22.9108 229.03L20.993 229.832L16.647 219.449L18.5648 218.647L20.2675 222.715L31.9098 217.842L32.8504 220.089L21.2081 224.962Z" fill="black"/>
<path d="M27.2634 212.75L17.7613 215.715L14.7891 214.157L12.6246 207.221L14.1829 204.249L23.685 201.284L26.6572 202.842L28.8217 209.778L27.2634 212.75ZM25.0279 204.67L23.5487 203.878L15.7706 206.305L15.0046 207.798L16.4184 212.329L17.8976 213.121L25.6757 210.694L26.4417 209.201L25.0279 204.67Z" fill="black"/>
<path d="M9.60256 195.129L9.2012 192.727L15.4358 191.685L15.0033 189.096L8.17013 186.554L7.72379 183.882L15.655 186.879L22.1641 181.108L22.6208 183.842L17.0746 188.75L17.5071 191.339L23.7003 190.305L24.1017 192.707L9.60256 195.129Z" fill="black"/>
<path d="M7.07437 176.73L6.90522 174.426L21.1767 168.051L21.3582 170.523L17.9738 172.035L18.3751 177.501L21.944 178.502L22.1255 180.973L7.07437 176.73ZM15.9838 172.749L9.94285 175.362L9.94592 175.403L16.3006 177.064L15.9838 172.749Z" fill="black"/>
<path d="M6.31962 166.356L6.41442 163.901L17.5493 162.355L17.5518 162.292L6.61374 158.738L6.68909 156.787L17.8645 154.192L17.8678 154.108L6.88436 151.73L6.97916 149.274L21.5515 152.863L21.4608 155.214L10.3249 157.873L10.3225 157.936L21.2161 161.551L21.1253 163.901L6.31962 166.356Z" fill="black"/>
<path d="M8.0996 141.397L8.44523 139.113L23.7747 136.059L23.4039 138.509L19.7687 139.233L18.9486 144.652L22.2068 146.42L21.836 148.87L8.0996 141.397ZM17.6697 139.489L11.2001 140.698L11.1938 140.739L17.0225 143.766L17.6697 139.489Z" fill="black"/>
<path d="M9.76523 131.241L10.3576 128.878L16.4889 130.415L18.1129 123.938L11.9817 122.401L12.5741 120.038L26.8328 123.613L26.2403 125.975L20.1498 124.448L18.5258 130.926L24.6163 132.453L24.0239 134.816L9.76523 131.241Z" fill="black"/>
<path d="M15.1872 112.085L15.9661 109.91L31.5967 109.865L30.7611 112.198L27.0544 112.209L25.2062 117.369L28.0632 119.73L27.2276 122.063L15.1872 112.085ZM24.9455 112.056L18.3642 111.996L18.3501 112.035L23.4868 116.128L24.9455 112.056Z" fill="black"/>
<path d="M32.6601 96.3146L36.9518 98.341L35.9117 100.544L32.1517 98.7685L30.006 99.4274L27.9617 103.757L33.2218 106.241L32.1818 108.443L18.889 102.167L22.7086 94.0776L25.579 93.0642L29.6618 94.9919L30.3936 97.0327L32.6601 96.3146ZM26.1387 102.896L28.452 97.997L28.051 96.8788L25.2215 95.5428L24.1033 95.9437L21.7901 100.843L26.1387 102.896Z" fill="black"/>
<path d="M27.7439 84.7309L28.9261 82.7463L44.2742 85.7051L43.006 87.834L39.3663 87.1324L36.5612 91.8412L38.9112 94.7078L37.643 96.8367L27.7439 84.7309ZM37.3261 86.577L30.8788 85.254L30.8573 85.2901L35.1121 90.2935L37.3261 86.577Z" fill="black"/>
<path d="M46.4024 72.5207L36.4032 71.187L38.0649 69.1009L45.3742 70.1713L45.4004 70.1385L42.723 63.2535L44.3848 61.1674L47.9202 70.6154L52.6507 74.3837L51.1329 76.289L46.4024 72.5207Z" fill="black"/>
<path d="M55.0597 67.5185L46.2468 59.02L47.9377 57.2665L56.1611 65.1964L57.8385 65.1511L60.8414 62.0371L60.8257 60.3591L52.6024 52.4292L54.2933 50.6757L63.1062 59.1741L63.1694 62.6483L58.5339 67.4553L55.0597 67.5185Z" fill="black"/>
<path d="M61.5044 46.9664L58.1574 49.8379L56.8037 48.26L65.3466 40.9309L66.7003 42.5088L63.3533 45.3803L71.5711 54.9592L69.7223 56.5454L61.5044 46.9664Z" fill="black"/>
<path d="M74.6213 49.2318L68.8544 41.1185L69.4138 37.8095L75.3362 33.6L78.6452 34.1593L84.412 42.2726L83.8526 45.5816L77.9303 49.7912L74.6213 49.2318ZM81.609 44.5999L81.9033 42.9479L77.1828 36.3067L75.5258 36.0416L71.6575 38.7912L71.3631 40.4432L76.0837 47.0845L77.7406 47.3495L81.609 44.5999Z" fill="black"/>
<path d="M85.7674 26.9851L87.926 25.8561L90.8557 31.4572L93.1817 30.2405L93.4712 22.9556L95.8717 21.7001L95.4911 30.1702L103.001 34.5604L100.545 35.8451L94.155 32.1014L91.829 33.318L94.7392 38.8819L92.5806 40.0109L85.7674 26.9851Z" fill="black"/>
<path d="M102.376 18.858L104.514 17.9821L115.004 29.5695L112.711 30.5092L110.224 27.7613L105.152 29.8397L105.308 33.5432L103.015 34.4828L102.376 18.858ZM108.926 26.0914L104.568 21.1599L104.529 21.1758L104.924 27.7319L108.926 26.0914Z" fill="black"/>
<path d="M112.091 14.8469L114.455 14.1773L119.37 24.2875L119.43 24.2703L119.425 12.7695L121.304 12.2372L127.23 22.0613L127.31 22.0384L126.174 10.858L128.538 10.1884L129.634 25.1561L127.371 25.7971L121.396 16.0307L121.336 16.0478L121.269 27.5254L119.006 28.1664L112.091 14.8469Z" fill="black"/>
<path d="M135.996 8.87273L138.275 8.49213L145.937 22.1159L143.493 22.5241L141.676 19.2934L136.27 20.1964L135.601 23.8424L133.157 24.2507L135.996 8.87273ZM140.781 17.3776L137.624 11.603L137.582 11.6099L136.514 18.0904L140.781 17.3776Z" fill="black"/>
<path d="M146.374 7.2629L148.804 7.09388L149.243 13.3996L155.905 12.9363L155.466 6.63053L157.896 6.46151L158.916 21.1261L156.486 21.2951L156.051 15.0312L149.389 15.4946L149.824 21.7585L147.394 21.9275L146.374 7.2629Z" fill="black"/>
<path d="M167.128 6.46815L169.437 6.53946L174.294 21.3965L171.817 21.32L170.665 17.7967L165.187 17.6275L163.82 21.073L161.343 20.9965L167.128 6.46815ZM170.161 15.7432L168.191 9.4634L168.149 9.4621L165.837 15.6097L170.161 15.7432Z" fill="black"/>
<path d="M187.654 18.2357L187.053 22.9434L184.636 22.6345L185.164 18.5101L183.874 16.6727L179.125 16.0655L178.387 21.8356L175.971 21.5266L177.835 6.94532L186.709 8.07981L188.559 10.497L187.987 14.9755L186.272 16.3018L187.654 18.2357ZM179.38 14.0658L184.755 14.7529L185.694 14.0262L186.091 10.9225L185.365 9.98272L179.99 9.29563L179.38 14.0658Z" fill="black"/>
<path d="M196.96 9.94749L199.213 10.458L201.146 25.9686L198.729 25.421L198.271 21.7428L192.925 20.5316L190.926 23.653L188.51 23.1054L196.96 9.94749ZM198.168 19.6308L197.432 13.0905L197.391 13.0812L193.949 18.6749L198.168 19.6308Z" fill="black"/>
<path d="M213.324 23.5485L211.47 13.6327L213.97 14.5602L215.235 21.8384L215.274 21.853L220.98 17.1603L223.48 18.0879L215.608 24.3958L213.504 30.0662L211.221 29.219L213.324 23.5485Z" fill="black"/>
<path d="M222.061 30.7508L227.452 19.7587L229.639 20.8314L224.609 31.0882L225.165 32.6711L229.049 34.5761L230.642 34.0473L235.672 23.7905L237.86 24.8632L232.468 35.8553L229.18 36.9793L223.185 34.0387L222.061 30.7508Z" fill="black"/>
<path d="M242.917 30.2054L239.153 27.9068L240.237 26.1325L249.843 31.9996L248.759 33.7738L244.996 31.4752L238.417 42.2461L236.338 40.9764L242.917 30.2054Z" fill="black"/>
<path d="M244.866 43.4095L250.809 35.4245L254.129 34.9378L259.958 39.2761L260.445 42.5966L254.502 50.5815L251.181 51.0683L245.352 46.73L244.866 43.4095ZM251.424 48.6314L253.087 48.4027L257.952 41.8665L257.693 40.2084L253.886 37.3747L252.224 37.6034L247.359 44.1396L247.617 45.7977L251.424 48.6314Z" fill="black"/>
<path d="M270.103 47.7474L271.838 49.4574L267.401 53.9593L269.271 55.802L276.295 53.8502L278.225 55.7517L270.044 57.9792L268.16 66.4721L266.186 64.5263L267.797 57.2976L265.927 55.455L261.52 59.9271L259.785 58.2171L270.103 47.7474Z" fill="black"/>
<path d="M282.75 60.9124L284.242 62.6765L276.445 76.2241L274.846 74.3317L276.694 71.1189L273.156 66.9332L269.68 68.2214L268.081 66.329L282.75 60.9124ZM277.884 69.3709L281.235 63.706L281.208 63.674L275.091 66.0672L277.884 69.3709Z" fill="black"/>
<path d="M289.18 68.4422L290.551 70.4807L282.472 78.297L282.507 78.3493L293.435 74.7666L294.526 76.3869L287.032 85.0744L287.079 85.1441L297.351 80.5858L298.723 82.6242L284.839 88.3222L283.526 86.3709L290.949 77.6546L290.914 77.6024L279.985 81.1093L278.672 79.1579L289.18 68.4422Z" fill="black"/>
<path d="M302.378 89.4497L303.448 91.4966L292.885 103.018L291.737 100.822L294.242 98.0897L291.701 93.2329L288.028 93.7322L286.88 91.5364L302.378 89.4497ZM295.784 96.6432L300.289 91.8455L300.27 91.8083L293.779 92.8099L295.784 96.6432Z" fill="black"/>
<path d="M307.159 98.8798L308.075 101.137L302.217 103.512L304.726 109.701L310.584 107.326L311.499 109.584L297.876 115.107L296.961 112.849L302.78 110.49L300.271 104.301L294.452 106.661L293.536 104.403L307.159 98.8798Z" fill="black"/>
<path d="M314.079 117.524L314.733 119.739L302.142 129.001L301.44 126.625L304.425 124.428L302.872 119.172L299.172 118.952L298.469 116.575L314.079 117.524ZM306.218 123.307L311.566 119.471L311.554 119.431L304.992 119.159L306.218 123.307Z" fill="black"/>
<path d="M309.338 140.915L304.676 141.804L304.22 139.411L308.304 138.632L309.65 136.836L308.753 132.133L303.039 133.223L302.583 130.83L317.023 128.076L318.699 136.863L316.975 139.372L312.54 140.218L310.747 139L309.338 140.915ZM310.734 131.755L311.749 137.077L312.731 137.745L315.805 137.159L316.472 136.176L315.457 130.854L310.734 131.755Z" fill="black"/>
<path d="M320.128 147.466L320.341 149.766L306.195 156.415L305.966 153.947L309.321 152.371L308.814 146.913L305.227 145.981L304.998 143.513L320.128 147.466ZM311.297 151.618L317.286 148.889L317.283 148.848L310.897 147.31L311.297 151.618Z" fill="black"/>
</svg>
