<svg width="131" height="131" viewBox="0 0 131 131" fill="none" xmlns="http://www.w3.org/2000/svg">
<rect width="129.926" height="129.926" transform="translate(0.429199 0.452881)" fill="white"/>
<path d="M14.4291 26.7548V39.0562H26.7305H39.0318V26.7548V14.4534H26.7305H14.4291V26.7548ZM35.5172 26.7548V35.5415H26.7305H17.9438V26.7548V17.9681H26.7305H35.5172V26.7548Z" fill="#3420FA"/>
<path d="M21.4585 26.7546V32.0266H26.7305H32.0025V26.7546V21.4826H26.7305H21.4585V26.7546Z" fill="#3420FA"/>
<path d="M46.061 16.2103V17.9676H44.3036H42.5463V21.4823V24.9969H44.3036H46.061V26.7543V28.5116H44.3036H42.5463V35.541V42.5704H39.0316H35.5169V44.3277V46.085H33.7596H32.0023V47.8424V49.5997H33.7596H35.5169V51.3571V53.1144H33.7596H32.0023V54.8717V56.6291H33.7596H35.5169V58.3864V60.1438H37.2743H39.0316V61.9011V63.6584H35.5169H32.0023V61.9011V60.1438H30.2449H28.4876V70.6878V81.2318H26.7302H24.9729V82.9892V84.7465H26.7302H28.4876V86.5039V88.2612H33.7596H39.0316V86.5039V84.7465H40.789H42.5463V90.0186V95.2906H44.3036H46.061V98.8053V102.32H44.3036H42.5463V104.077V105.835H44.3036H46.061V104.077V102.32H47.8183H49.5757V104.077V105.835H51.333H53.0903V107.592V109.349H54.8477H56.605V111.107V112.864H54.8477H53.0903V114.621V116.379H56.605H60.1197V114.621V112.864H65.3917H70.6637V114.621V116.379H72.4211H74.1784V114.621V112.864H77.6931H81.2078V114.621V116.379H88.2372H95.2665V112.864V109.349H93.5092H91.7518V111.107V112.864H89.9945H88.2372V107.592V102.32H89.9945H91.7518V104.077V105.835H95.2665H98.7812V111.107V116.379H102.296H105.811V114.621V112.864H104.053H102.296V111.107V109.349H105.811H109.325V112.864V116.379H111.083H112.84V112.864V109.349H114.597H116.355V107.592V105.835H114.597H112.84V102.32V98.8053H114.597H116.355V97.0479V95.2906H114.597H112.84V93.5332V91.7759H114.597H116.355V90.0186V88.2612H112.84H109.325V86.5039V84.7465H112.84H116.355V79.4745V74.2025H114.597H112.84V70.6878V67.1731H114.597H116.355V65.4158V63.6584H107.568H98.7812V65.4158V67.1731H97.0239H95.2665V65.4158V63.6584H93.5092H91.7518V61.9011V60.1438H95.2665H98.7812V58.3864V56.6291H91.7518H84.7225V53.1144V49.5997H82.9651H81.2078V51.3571V53.1144H79.4505H77.6931V51.3571V49.5997H75.9358H74.1784V46.085V42.5704H75.9358H77.6931V44.3277V46.085H81.2078H84.7225V44.3277V42.5704H86.4798H88.2372V39.0557V35.541H86.4798H84.7225V33.7837V32.0263H86.4798H88.2372V26.7543V21.4823H84.7225H81.2078V19.7249V17.9676H82.9651H84.7225V16.2103V14.4529H82.9651H81.2078V16.2103V17.9676H72.4211H63.6344V19.7249V21.4823H65.3917H67.1491V23.2396V24.9969H63.6344H60.1197V19.7249V14.4529H58.3624H56.605V16.2103V17.9676H54.8477H53.0903V19.7249V21.4823H49.5757H46.061V19.7249V17.9676H47.8183H49.5757V16.2103V14.4529H47.8183H46.061V16.2103ZM74.1784 23.2396V24.9969H75.9358H77.6931V26.7543V28.5116H75.9358H74.1784V30.269V32.0263H77.6931H81.2078V30.269V28.5116H82.9651H84.7225V30.269V32.0263H82.9651H81.2078V33.7837V35.541H82.9651H84.7225V37.2983V39.0557H82.9651H81.2078V40.813V42.5704H79.4505H77.6931V40.813V39.0557H75.9358H74.1784V40.813V42.5704H72.4211H70.6637V46.085V49.5997H72.4211H74.1784V51.3571V53.1144H75.9358H77.6931V54.8717V56.6291H75.9358H74.1784V58.3864V60.1438H72.4211H70.6637V61.9011V63.6584H77.6931H84.7225V68.9305V74.2025H86.4798H88.2372V79.4745V84.7465H86.4798H84.7225V86.5039V88.2612H82.9651H81.2078V90.0186V91.7759H82.9651H84.7225V98.8053V105.835H82.9651H81.2078V107.592V109.349H77.6931H74.1784V111.107V112.864H72.4211H70.6637V111.107V109.349H68.9064H67.1491V98.8053V88.2612H65.3917H63.6344V90.0186V91.7759H61.877H60.1197V93.5332V95.2906H58.3624H56.605V97.0479V98.8053H58.3624H60.1197V100.563V102.32H61.877H63.6344V105.835V109.349H60.1197H56.605V107.592V105.835H54.8477H53.0903V100.563V95.2906H51.333H49.5757V93.5332V91.7759H47.8183H46.061V86.5039V81.2318H47.8183H49.5757V84.7465V88.2612H53.0903H56.605V84.7465V81.2318H54.8477H53.0903V79.4745V77.7172H51.333H49.5757V74.2025V70.6878H51.333H53.0903V67.1731V63.6584H54.8477H56.605V67.1731V70.6878H54.8477H53.0903V72.4451V74.2025H58.3624H63.6344V70.6878V67.1731H61.877H60.1197V65.4158V63.6584H63.6344H67.1491V61.9011V60.1438H65.3917H63.6344V58.3864V56.6291H67.1491H70.6637V54.8717V53.1144H65.3917H60.1197V54.8717V56.6291H58.3624H56.605V58.3864V60.1438H53.0903H49.5757V63.6584V67.1731H46.061H42.5463V68.9305V70.6878H37.2743H32.0023V68.9305V67.1731H35.5169H39.0316V65.4158V63.6584H42.5463H46.061V61.9011V60.1438H44.3036H42.5463V58.3864V56.6291H44.3036H46.061V54.8717V53.1144H44.3036H42.5463V51.3571V49.5997H39.0316H35.5169V47.8424V46.085H39.0316H42.5463V44.3277V42.5704H46.061H49.5757V40.813V39.0557H47.8183H46.061V37.2983V35.541H47.8183H49.5757V33.7837V32.0263H47.8183H46.061V30.269V28.5116H51.333H56.605V26.7543V24.9969H58.3624H60.1197V30.269V35.541H61.877H63.6344V33.7837V32.0263H65.3917H67.1491V33.7837V35.541H68.9064H70.6637V32.0263V28.5116H72.4211H74.1784V26.7543V24.9969H72.4211H70.6637V23.2396V21.4823H72.4211H74.1784V23.2396ZM39.0316 54.8717V56.6291H37.2743H35.5169V54.8717V53.1144H37.2743H39.0316V54.8717ZM95.2665 68.9305V70.6878H97.0239H98.7812V68.9305V67.1731H100.539H102.296V68.9305V70.6878H104.053H105.811V68.9305V67.1731H107.568H109.325V70.6878V74.2025H111.083H112.84V75.9598V77.7172H111.083H109.325V81.2318V84.7465H107.568H105.811V88.2612V91.7759H107.568H109.325V93.5332V95.2906H105.811H102.296V86.5039V77.7172H100.539H98.7812V79.4745V81.2318H97.0239H95.2665V82.9892V84.7465H93.5092H91.7518V81.2318V77.7172H95.2665H98.7812V75.9598V74.2025H95.2665H91.7518V72.4451V70.6878H89.9945H88.2372V68.9305V67.1731H91.7518H95.2665V68.9305ZM39.0316 75.9598V77.7172H37.2743H35.5169V79.4745V81.2318H37.2743H39.0316V82.9892V84.7465H33.7596H28.4876V82.9892V81.2318H30.2449H32.0023V79.4745V77.7172H33.7596H35.5169V75.9598V74.2025H37.2743H39.0316V75.9598ZM98.7812 93.5332V98.8053H93.5092H88.2372V93.5332V88.2612H93.5092H98.7812V93.5332ZM109.325 100.563V102.32H105.811H102.296V100.563V98.8053H105.811H109.325V100.563ZM112.84 107.592V109.349H111.083H109.325V107.592V105.835H111.083H112.84V107.592Z" fill="#3420FA"/>
<path d="M53.0906 33.7843V35.5416H51.3333H49.5759V37.299V39.0563H51.3333H53.0906V37.299V35.5416H54.8479H56.6053V39.0563V42.571H58.3626H60.12V46.0857V49.6003H63.6347H67.1493V42.571V35.5416H65.392H63.6347V39.0563V42.571H61.8773H60.12V39.0563V35.5416H58.3626H56.6053V33.7843V32.0269H54.8479H53.0906V33.7843Z" fill="#3420FA"/>
<path d="M70.6642 37.2988V39.0562H72.4215H74.1789V37.2988V35.5415H72.4215H70.6642V37.2988Z" fill="#3420FA"/>
<path d="M77.6935 37.2988V39.0562H79.4508H81.2082V37.2988V35.5415H79.4508H77.6935V37.2988Z" fill="#3420FA"/>
<path d="M49.5759 46.0856V49.6003H47.8185H46.0612V47.843V46.0856H44.3038H42.5465V47.843V49.6003H44.3038H46.0612V51.3576V53.115H49.5759H53.0906V51.3576V49.6003H54.8479H56.6052V47.843V46.0856H54.8479H53.0906V44.3283V42.5709H51.3332H49.5759V46.0856Z" fill="#3420FA"/>
<path d="M74.1788 68.9308V70.6882H72.4215H70.6641V72.4455V74.2028H67.1494H63.6348V75.9602V77.7175H68.9068H74.1788V74.2028V70.6882H75.9361H77.6935V68.9308V67.1735H75.9361H74.1788V68.9308Z" fill="#3420FA"/>
<path d="M77.6935 75.9602V77.7175H79.4508H81.2082V75.9602V74.2028H79.4508H77.6935V75.9602Z" fill="#3420FA"/>
<path d="M56.6053 79.4748V81.2322H58.3627H60.12V79.4748V77.7175H58.3627H56.6053V79.4748Z" fill="#3420FA"/>
<path d="M63.6346 82.9896V84.747H61.8772H60.1199V86.5043V88.2617H61.8772H63.6346V86.5043V84.747H65.3919H67.1492V86.5043V88.2617H68.9066H70.6639V90.019V91.7763H72.4213H74.1786V93.5337V95.291H77.6933H81.208V93.5337V91.7763H77.6933H74.1786V88.2617V84.747H79.4506H84.7226V82.9896V81.2323H79.4506H74.1786V82.9896V84.747H72.4213H70.6639V82.9896V81.2323H67.1492H63.6346V82.9896Z" fill="#3420FA"/>
<path d="M74.1789 100.563V102.32H72.4215H70.6642V104.078V105.835H74.1789H77.6935V102.32V98.8056H75.9362H74.1789V100.563Z" fill="#3420FA"/>
<path d="M102.296 75.9602V77.7175H104.053H105.811V75.9602V74.2028H104.053H102.296V75.9602Z" fill="#3420FA"/>
<path d="M91.752 93.5337V95.291H93.5093H95.2666V93.5337V91.7763H93.5093H91.752V93.5337Z" fill="#3420FA"/>
<path d="M91.752 26.7548V39.0562H104.053H116.355V26.7548V14.4534H104.053H91.752V26.7548ZM112.84 26.7548V35.5415H104.053H95.2666V26.7548V17.9681H104.053H112.84V26.7548Z" fill="#3420FA"/>
<path d="M98.7814 26.7546V32.0266H104.053H109.325V26.7546V21.4826H104.053H98.7814V26.7546Z" fill="#3420FA"/>
<path d="M14.4291 44.328V46.0853H16.1864H17.9438V47.8427V49.6H16.1864H14.4291V53.1147V56.6294H16.1864H17.9438V54.872V53.1147H19.7011H21.4584V56.6294V60.144H23.2158H24.9731V56.6294V53.1147H26.7305H28.4878V47.8427V42.5706H26.7305H24.9731V46.0853V49.6H23.2158H21.4584V46.0853V42.5706H17.9438H14.4291V44.328Z" fill="#3420FA"/>
<path d="M91.7522 44.328V46.0853H89.9949H88.2375V47.8427V49.6H91.7522H95.2669V47.8427V46.0853H98.7816H102.296V49.6V53.1147H104.054H105.811V54.872V56.6294H104.054H102.296V58.3867V60.144H104.054H105.811V58.3867V56.6294H107.568H109.326V58.3867V60.144H112.84H116.355V58.3867V56.6294H114.598H112.84V53.1147V49.6H114.598H116.355V47.8427V46.0853H114.598H112.84V44.328V42.5706H109.326H105.811V44.328V46.0853H104.054H102.296V44.328V42.5706H97.0243H91.7522V44.328ZM112.84 47.8427V49.6H109.326H105.811V47.8427V46.0853H109.326H112.84V47.8427Z" fill="#3420FA"/>
<path d="M21.4584 65.4161V67.1735H17.9438H14.4291V68.9308V70.6882H16.1864H17.9438V72.4455V74.2028H19.7011H21.4584V75.9602V77.7175H23.2158H24.9731V75.9602V74.2028H23.2158H21.4584V72.4455V70.6882H23.2158H24.9731V67.1735V63.6588H23.2158H21.4584V65.4161Z" fill="#3420FA"/>
<path d="M14.4291 79.4748V81.2322H16.1864H17.9438V79.4748V77.7175H16.1864H14.4291V79.4748Z" fill="#3420FA"/>
<path d="M14.4291 86.5044V88.2617H16.1864H17.9438V86.5044V84.747H16.1864H14.4291V86.5044Z" fill="#3420FA"/>
<path d="M14.4292 104.077V116.379H26.7306H39.032V104.077V91.7759H26.7306H14.4292V104.077ZM35.5173 104.077V112.864H26.7306H17.9439V104.077V95.2906H26.7306H35.5173V104.077Z" fill="#3420FA"/>
<path d="M21.4585 104.078V109.35H26.7305H32.0025V104.078V98.8058H26.7305H21.4585V104.078Z" fill="#3420FA"/>
<path d="M42.5465 112.864V116.379H46.0612H49.5759V112.864V109.349H46.0612H42.5465V112.864Z" fill="#3420FA"/>
</svg>
