<svg width="1303" height="1083" viewBox="0 0 1303 1083" fill="none" xmlns="http://www.w3.org/2000/svg">
<path fill-rule="evenodd" clip-rule="evenodd" d="M682.801 20.238C753.353 29.1487 818.293 52.9517 887.823 66.4279C966.373 81.6525 1055.83 67.9681 1123.02 105.561C1189.75 142.896 1228.95 208.752 1255.96 272.397C1282.21 334.232 1277.16 401.333 1276.44 467.019C1275.75 529.012 1251.26 588.25 1251.79 650.245C1252.5 732.763 1344.27 832.297 1280.12 894.529C1213.14 959.499 1079.03 905.319 977.832 916.003C910.294 923.133 840.614 923.326 778.832 947.452C695.973 979.81 647.337 1067.01 557.396 1080.19C473.146 1092.54 390.582 1049.03 314.867 1015.46C236.916 980.902 160.759 939.699 107.286 880.622C53.7415 821.466 22.0075 749.255 7.43586 675.812C-6.66526 604.741 -0.187384 530.986 24.2145 461.935C47.2415 396.775 96.2894 341.459 144.776 287.176C188.806 237.881 247.114 201.163 297.267 156.236C350.614 108.448 380.816 36.7659 452.568 11.4552C524.067 -13.7661 606.17 10.5595 682.801 20.238Z" fill="#B2FF00"/>
</svg>
