<svg width="1140" height="1250" viewBox="0 0 1140 1250" fill="none" xmlns="http://www.w3.org/2000/svg">
<path fill-rule="evenodd" clip-rule="evenodd" d="M494.356 1.52765C616.592 -2.4069 752.77 5.88231 843.22 88.1995C931.481 168.524 904.53 312.531 954.943 420.7C1005.94 530.122 1140.02 603.072 1139.44 723.792C1138.85 845.242 1045.26 949.791 952.019 1027.61C866.357 1099.1 748.747 1101.79 643.194 1137.94C531.564 1176.17 429.552 1268.72 313.718 1246.24C196.391 1223.46 103.107 1125.25 43.6694 1021.56C-10.8851 926.393 2.53556 811.575 1.67981 701.879C0.933288 606.185 14.318 515.549 39.0006 423.09C68.427 312.86 75.9117 187.71 159.632 110.203C247.493 28.8618 374.685 5.37961 494.356 1.52765Z" fill="#3420FA"/>
</svg>
