<svg width="170" height="171" viewBox="0 0 170 171" fill="none" xmlns="http://www.w3.org/2000/svg">
<rect x="6.91644" y="7.71209" width="156.078" height="156.078" rx="24.4115" stroke="#52D3E5" stroke-width="13.5043"/>
<path fill-rule="evenodd" clip-rule="evenodd" d="M132.041 107.824C131.53 107.295 130.998 106.815 130.444 106.367C124.744 101.216 121.485 93.8193 121.485 85.9748C121.485 78.1302 124.913 70.3527 130.886 65.1882C134.786 61.8186 137.022 56.9037 137.022 51.7017C137.022 42.0113 129.393 34.1292 120.013 34.1292C110.633 34.1292 103.004 42.0113 103.004 51.7017C103.004 56.9037 105.239 61.8213 109.14 65.1882C115.115 70.35 118.54 77.9263 118.54 85.9748C118.54 90.0661 117.654 94.0338 115.997 97.6247C115.037 99.707 112.62 100.589 110.46 99.8202C101.505 96.6332 93.3071 91.5002 86.324 84.6521C76.4534 74.9698 69.7743 62.6074 66.9724 48.866C65.7311 40.4285 58.665 33.9414 50.1552 33.9414C40.7754 33.9414 33.1459 41.8235 33.1459 51.5139V51.5998V51.699C33.1459 54.1055 33.5821 56.343 34.4833 58.5402C35.3506 60.6623 36.5451 62.4893 38.1292 64.1259C38.929 64.9522 39.773 65.6738 40.6793 66.3016C45.7873 71.3936 48.6854 78.3904 48.6854 85.787C48.6854 93.8328 45.2576 101.409 39.2822 106.573C35.3844 109.943 33.1459 114.858 33.1459 120.06C33.1459 129.75 40.7754 137.633 50.1552 137.633C59.535 137.633 67.1645 129.75 67.1645 120.06C67.1645 114.858 64.9286 109.94 61.0282 106.573C55.0528 101.412 51.625 93.8354 51.625 85.787C51.625 81.7677 52.4806 77.8677 54.0811 74.3266C55.0301 72.2269 57.456 71.3293 59.6277 72.0992C68.6125 75.2846 76.838 80.4255 83.8414 87.2947C93.8679 97.1273 100.604 109.726 103.326 123.727C103.546 124.865 103.876 125.965 104.338 127.086C105.206 129.208 106.4 131.035 107.984 132.672C109.568 134.309 111.337 135.543 113.394 136.439C115.52 137.367 117.683 137.82 120.013 137.82C122.342 137.82 124.508 137.37 126.635 136.439C128.689 135.543 130.457 134.309 132.041 132.675C133.626 131.035 134.82 129.208 135.687 127.086C136.586 124.889 137.025 122.654 137.025 120.248C137.025 117.841 136.589 115.604 135.687 113.407C134.817 111.285 133.626 109.458 132.044 107.821L132.041 107.824ZM115.21 49.5234C115.21 51.5313 114.454 53.1591 113.522 53.1591C112.59 53.1591 111.834 51.5313 111.834 49.5234C111.834 47.5154 112.59 45.8876 113.522 45.8876C114.454 45.8876 115.21 47.5154 115.21 49.5234ZM126.247 53.1591C127.18 53.1591 127.935 51.5313 127.935 49.5234C127.935 47.5154 127.18 45.8876 126.247 45.8876C125.315 45.8876 124.559 47.5154 124.559 49.5234C124.559 51.5313 125.315 53.1591 126.247 53.1591Z" fill="#52D3E5"/>
<ellipse cx="119.625" cy="33.1619" rx="16.6206" ry="8.05062" fill="white"/>
<path d="M133.304 38.3559L134.422 37.3008C135.585 36.2031 136.328 34.6898 136.239 33.1148C136.15 31.5553 135.654 30.7424 133.304 28.9906C129.973 26.5067 124.306 25.1113 119.595 25.1113C114.884 25.1113 109.278 26.5067 105.946 28.9906C103.597 30.7424 103.1 31.5553 103.012 33.1148C102.923 34.6898 103.666 36.2031 104.829 37.3008L105.946 38.3559" stroke="#263238" stroke-width="1.39273"/>
<path fill-rule="evenodd" clip-rule="evenodd" d="M133.622 39.0958H133.623L134.767 37.9611C134.921 37.8079 135.068 37.6471 135.207 37.4797L135.207 37.4791C135.067 37.6467 134.92 37.8077 134.766 37.9611L133.784 36.9726C133.92 36.838 134.068 36.6973 134.187 36.5515C134.017 36.4123 133.816 36.2676 133.623 36.1163C130.216 33.445 124.42 31.9443 119.602 31.9443C114.783 31.9443 109.049 33.445 105.642 36.1163C105.448 36.2679 105.234 36.4131 105.064 36.5526C105.183 36.698 105.343 36.8383 105.479 36.9726L106.277 37.733L118.488 37.7031H119.631H120.775L132.974 37.733L133.784 36.9726L134.766 37.9611L133.622 39.0958Z" fill="#0077B3"/>
<path d="M105.206 38.1005C105.206 39.3668 106.726 40.5812 109.433 41.4766C112.14 42.372 115.811 42.875 119.639 42.875C123.468 42.875 127.139 42.372 129.846 41.4766C132.553 40.5812 134.073 39.3668 134.073 38.1005C134.073 38.1005 129.846 36.2912 119.639 36.2912C109.433 36.2912 105.206 38.1005 105.206 38.1005Z" fill="#263238"/>
<circle cx="119.639" cy="30.7825" r="4.2415" fill="#D1CFB8"/>
</svg>
