<svg width="170" height="171" viewBox="0 0 170 171" fill="none" xmlns="http://www.w3.org/2000/svg">
<rect x="6.75213" y="7.71111" width="156.078" height="156.078" rx="24.4115" stroke="#52D3E5" stroke-width="13.5043"/>
<path fill-rule="evenodd" clip-rule="evenodd" d="M131.877 107.823C131.366 107.294 130.833 106.814 130.28 106.366C124.58 101.215 121.321 93.8184 121.321 85.9738C121.321 78.1292 124.749 70.3517 130.722 65.1873C134.622 61.8176 136.858 56.9027 136.858 51.7007C136.858 42.0104 129.228 34.1282 119.849 34.1282C110.469 34.1282 102.839 42.0104 102.839 51.7007C102.839 56.9027 105.075 61.8203 108.976 65.1873C114.951 70.349 118.376 77.9253 118.376 85.9738C118.376 90.0651 117.49 94.0328 115.833 97.6237C114.872 99.706 112.456 100.588 110.296 99.8192C101.341 96.6322 93.1428 91.4992 86.1597 84.6512C76.2891 74.9688 69.61 62.6064 66.808 48.865C65.5668 40.4275 58.5007 33.9404 49.9909 33.9404C40.6111 33.9404 32.9816 41.8226 32.9816 51.5129V51.5988V51.698C32.9816 54.1045 33.4178 56.342 34.3189 58.5392C35.1863 60.6613 36.3808 62.4884 37.9649 64.1249C38.7647 64.9512 39.6087 65.6729 40.515 66.3006C45.623 71.3926 48.5211 78.3894 48.5211 85.786C48.5211 93.8318 45.0932 101.408 39.1179 106.573C35.22 109.942 32.9816 114.857 32.9816 120.059C32.9816 129.749 40.6111 137.632 49.9909 137.632C59.3707 137.632 67.0002 129.749 67.0002 120.059C67.0002 114.857 64.7643 109.939 60.8639 106.573C54.8885 101.411 51.4607 93.8345 51.4607 85.786C51.4607 81.7668 52.3163 77.8667 53.9168 74.3256C54.8658 72.226 57.2917 71.3283 59.4633 72.0983C68.4482 75.2837 76.6737 80.4245 83.6771 87.2937C93.7036 97.1263 100.44 109.725 103.161 123.726C103.382 124.864 103.712 125.964 104.174 127.085C105.041 129.207 106.236 131.034 107.82 132.671C109.404 134.308 111.173 135.542 113.229 136.438C115.356 137.366 117.519 137.819 119.849 137.819C122.178 137.819 124.344 137.369 126.471 136.438C128.525 135.542 130.293 134.308 131.877 132.674C133.461 131.034 134.656 129.207 135.523 127.085C136.422 124.888 136.86 122.653 136.86 120.247C136.86 117.84 136.424 115.603 135.523 113.406C134.653 111.284 133.461 109.457 131.88 107.82L131.877 107.823ZM115.046 49.5224C115.046 51.5304 114.29 53.1581 113.358 53.1581C112.426 53.1581 111.67 51.5304 111.67 49.5224C111.67 47.5144 112.426 45.8866 113.358 45.8866C114.29 45.8866 115.046 47.5144 115.046 49.5224ZM126.083 53.1581C127.015 53.1581 127.771 51.5304 127.771 49.5224C127.771 47.5144 127.015 45.8866 126.083 45.8866C125.151 45.8866 124.395 47.5144 124.395 49.5224C124.395 51.5304 125.151 53.1581 126.083 53.1581Z" fill="#52D3E5"/>
<path fill-rule="evenodd" clip-rule="evenodd" d="M143.664 37.077C143.475 36.5601 143.266 36.0488 143.035 35.5443C141.796 32.8301 139.979 30.364 137.689 28.2867C135.398 26.2093 132.679 24.5615 129.687 23.4373C126.694 22.313 123.487 21.7344 120.248 21.7344C117.009 21.7344 113.801 22.313 110.809 23.4373C107.816 24.5615 105.097 26.2093 102.807 28.2867C100.516 30.364 98.6994 32.8301 97.4599 35.5443C96.5471 37.543 95.9089 39.5955 95.3831 41.791C95.3693 41.8429 95.3556 41.8961 95.342 41.9504C94.8588 43.8776 94.7897 45.8633 94.7896 47.837L94.7896 47.8496C94.79 47.9861 94.8061 50.4616 95.3831 52.7688C95.9767 55.1424 97.1465 56.9045 99.4939 57.663C103.235 58.8718 105.694 57.4489 107.628 54.3634C108.481 53.0024 108.771 51.4345 108.771 49.8795C108.771 48.974 108.74 48.0562 108.444 47.2005C107.437 44.2918 104.805 42.6676 101.465 41.9863C100.825 41.8559 100.368 41.3334 100.485 40.764C100.741 39.5207 101.139 38.3019 101.675 37.1278C102.685 34.9157 104.166 32.9057 106.033 31.2127C107.899 29.5196 110.116 28.1766 112.555 27.2603C114.994 26.344 117.608 25.8724 120.248 25.8724C122.888 25.8724 125.502 26.344 127.941 27.2603C130.38 28.1766 132.596 29.5196 134.463 31.2127C136.039 32.6425 137.34 34.2983 138.315 36.1111H138.3C138.479 36.4448 138.648 36.7839 138.805 37.1278C139.151 37.887 139.44 38.6649 139.67 39.456C139.803 39.9229 139.916 40.3963 140.01 40.8719C140.053 41.3982 139.614 41.8642 139.015 41.9863C135.675 42.6677 133.042 44.2918 132.036 47.2005C131.74 48.0562 131.708 48.974 131.708 49.8795C131.708 51.4345 131.999 53.0024 132.852 54.3634C134.785 57.4489 137.245 58.8718 140.986 57.663C143.333 56.9045 144.503 55.1424 145.097 52.7688C145.674 50.4616 145.69 47.9861 145.69 47.8496L145.69 47.837C145.69 45.8633 145.621 43.8776 145.138 41.9504C145.124 41.8961 145.11 41.8429 145.097 41.791C144.704 40.1524 144.249 38.5934 143.664 37.077Z" fill="#263238"/>
<path fill-rule="evenodd" clip-rule="evenodd" d="M111.042 59.4283C109.076 58.613 107.377 57.1931 105.928 54.6572L103.908 55.8116C105.587 58.7505 107.663 60.5462 110.151 61.5777C112.271 62.4572 114.625 62.7526 117.147 62.8154C117.79 62.8313 118.311 62.3082 118.311 61.6656C118.311 61.0231 117.79 60.5046 117.147 60.4875C114.782 60.4246 112.775 60.1469 111.042 59.4283Z" fill="#263238"/>
</svg>
