<svg width="170" height="170" viewBox="0 0 170 170" fill="none" xmlns="http://www.w3.org/2000/svg">
<rect x="6.75213" y="6.75213" width="156.078" height="156.078" rx="24.4116" stroke="#52D3E5" stroke-width="13.5043"/>
<path fill-rule="evenodd" clip-rule="evenodd" d="M131.877 106.861C131.365 106.332 130.833 105.852 130.28 105.404C124.58 100.253 121.321 92.8564 121.321 85.0119C121.321 77.1673 124.749 69.3898 130.721 64.2253C134.622 60.8557 136.858 55.9408 136.858 50.7388C136.858 41.0484 129.228 33.1663 119.848 33.1663C110.469 33.1663 102.839 41.0484 102.839 50.7388C102.839 55.9408 105.075 60.8584 108.975 64.2253C114.951 69.3871 118.376 76.9634 118.376 85.0119C118.376 89.1032 117.49 93.0709 115.833 96.6618C114.872 98.7441 112.456 99.6262 110.296 98.8573C101.341 95.6703 93.1427 90.5373 86.1596 83.6892C76.289 74.0069 69.6099 61.6445 66.8079 47.9031C65.5666 39.4656 58.5006 32.9785 49.9908 32.9785C40.611 32.9785 32.9814 40.8606 32.9814 50.551V50.6369V50.7361C32.9814 53.1426 33.4177 55.3801 34.3188 57.5773C35.1862 59.6994 36.3807 61.5264 37.9648 63.163C38.7646 63.9893 39.6086 64.7109 40.5149 65.3387C45.6229 70.4307 48.5209 77.4275 48.5209 84.8241C48.5209 92.8698 45.0931 100.446 39.1178 105.611C35.2199 108.98 32.9814 113.895 32.9814 119.097C32.9814 128.787 40.611 136.67 49.9908 136.67C59.3706 136.67 67.0001 128.787 67.0001 119.097C67.0001 113.895 64.7642 108.978 60.8637 105.611C54.8884 100.449 51.4606 92.8725 51.4606 84.8241C51.4606 80.8048 52.3161 76.9048 53.9167 73.3637C54.8657 71.264 57.2915 70.3664 59.4632 71.1363C68.4481 74.3217 76.6735 79.4626 83.677 86.3318C93.7034 96.1643 100.44 108.763 103.161 122.765C103.382 123.902 103.712 125.002 104.174 126.123C105.041 128.246 106.236 130.073 107.82 131.709C109.404 133.346 111.172 134.58 113.229 135.476C115.356 136.404 117.519 136.857 119.848 136.857C122.178 136.857 124.344 136.407 126.47 135.476C128.524 134.58 130.293 133.346 131.877 131.712C133.461 130.073 134.656 128.246 135.523 126.123C136.421 123.926 136.86 121.691 136.86 119.285C136.86 116.878 136.424 114.641 135.523 112.444C134.653 110.322 133.461 108.495 131.88 106.858L131.877 106.861ZM115.046 48.5642C115.046 50.5722 114.29 52.2 113.358 52.2C112.425 52.2 111.67 50.5722 111.67 48.5642C111.67 46.5562 112.425 44.9285 113.358 44.9285C114.29 44.9285 115.046 46.5562 115.046 48.5642ZM126.083 52.2C127.015 52.2 127.771 50.5722 127.771 48.5642C127.771 46.5562 127.015 44.9285 126.083 44.9285C125.151 44.9285 124.395 46.5562 124.395 48.5642C124.395 50.5722 125.151 52.2 126.083 52.2Z" fill="#52D3E5"/>
</svg>
