<svg width="171" height="171" viewBox="0 0 171 171" fill="none" xmlns="http://www.w3.org/2000/svg">
<rect x="7.3344" y="7.71209" width="156.078" height="156.078" rx="24.4115" stroke="#52D3E5" stroke-width="13.5043"/>
<path fill-rule="evenodd" clip-rule="evenodd" d="M132.459 107.824C131.948 107.295 131.415 106.815 130.862 106.367C125.162 101.216 121.903 93.8193 121.903 85.9748C121.903 78.1302 125.331 70.3527 131.304 65.1882C135.204 61.8186 137.44 56.9037 137.44 51.7017C137.44 42.0113 129.811 34.1292 120.431 34.1292C111.051 34.1292 103.422 42.0113 103.422 51.7017C103.422 56.9037 105.657 61.8213 109.558 65.1882C115.533 70.35 118.958 77.9263 118.958 85.9748C118.958 90.0661 118.072 94.0338 116.415 97.6247C115.455 99.707 113.038 100.589 110.878 99.8202C101.923 96.6332 93.7251 91.5002 86.742 84.6521C76.8714 74.9698 70.1923 62.6074 67.3903 48.866C66.149 40.4285 59.083 33.9414 50.5732 33.9414C41.1934 33.9414 33.5638 41.8235 33.5638 51.5139V51.5998V51.699C33.5638 54.1055 34.0001 56.343 34.9012 58.5402C35.7686 60.6623 36.9631 62.4893 38.5472 64.1259C39.347 64.9522 40.191 65.6738 41.0973 66.3016C46.2053 71.3936 49.1033 78.3904 49.1033 85.787C49.1033 93.8328 45.6755 101.409 39.7002 106.573C35.8023 109.943 33.5638 114.858 33.5638 120.06C33.5638 129.75 41.1934 137.633 50.5732 137.633C59.953 137.633 67.5825 129.75 67.5825 120.06C67.5825 114.858 65.3466 109.94 61.4461 106.573C55.4708 101.412 52.043 93.8354 52.043 85.787C52.043 81.7677 52.8985 77.8677 54.4991 74.3266C55.4481 72.2269 57.8739 71.3293 60.0456 72.0992C69.0305 75.2846 77.256 80.4255 84.2594 87.2947C94.2858 97.1273 101.022 109.726 103.744 123.727C103.964 124.865 104.294 125.965 104.756 127.086C105.624 129.208 106.818 131.035 108.402 132.672C109.986 134.309 111.755 135.543 113.811 136.439C115.938 137.367 118.101 137.82 120.431 137.82C122.76 137.82 124.926 137.37 127.053 136.439C129.107 135.543 130.875 134.309 132.459 132.675C134.043 131.035 135.238 129.208 136.105 127.086C137.004 124.889 137.443 122.654 137.443 120.248C137.443 117.841 137.006 115.604 136.105 113.407C135.235 111.285 134.043 109.458 132.462 107.821L132.459 107.824ZM115.628 49.5234C115.628 51.5313 114.872 53.1591 113.94 53.1591C113.008 53.1591 112.252 51.5313 112.252 49.5234C112.252 47.5154 113.008 45.8876 113.94 45.8876C114.872 45.8876 115.628 47.5154 115.628 49.5234ZM126.665 53.1591C127.598 53.1591 128.353 51.5313 128.353 49.5234C128.353 47.5154 127.598 45.8876 126.665 45.8876C125.733 45.8876 124.977 47.5154 124.977 49.5234C124.977 51.5313 125.733 53.1591 126.665 53.1591Z" fill="#52D3E5"/>
<path d="M130.416 31.9852C132.807 34.605 134.266 38.0741 134.539 41.7624C125.59 37.6335 115.275 37.6335 106.326 41.7624C106.599 38.0741 108.058 34.605 110.449 31.9852C113.11 29.0697 116.703 27.4471 120.432 27.4471C124.162 27.4471 127.755 29.0697 130.416 31.9852Z" fill="#FFF3E0" stroke="#263238" stroke-width="1.55818"/>
<path d="M107.483 43.7039L106.44 41.9177C111.894 39.754 116.176 38.7275 120.43 38.7452C124.684 38.7628 128.965 39.8244 134.421 41.9247L133.382 43.7039C132.32 45.5225 130.058 46.248 128.136 45.3861C123.235 43.188 117.629 43.188 112.729 45.3861C110.807 46.248 108.545 45.5225 107.483 43.7039Z" fill="#FFF3E0" stroke="#263238" stroke-width="1.29849"/>
</svg>
