<svg width="17" height="17" viewBox="0 0 17 17" fill="none" xmlns="http://www.w3.org/2000/svg">
<g clip-path="url(#clip0_827_155)">
<path d="M6.24625 7.8527C6.17815 7.64158 6.11686 7.43728 6.04876 7.22617C5.98066 7.01505 5.91937 6.81756 5.86488 6.62007C5.8104 6.42938 5.76273 6.25232 5.71506 6.08888H5.70144C5.64015 6.38171 5.56524 6.67455 5.4699 6.96738C5.36775 7.29427 5.2656 7.63477 5.15663 7.97528C5.0681 8.32259 4.95914 8.64267 4.85699 8.92869H6.58676C6.5459 8.78568 6.49142 8.61543 6.43012 8.43837C6.36883 8.25449 6.30754 8.057 6.24625 7.8527ZM12.0893 7.6552C11.7148 7.63477 11.3606 7.83227 11.1836 8.17277C11.1019 8.3294 11.0542 8.49285 11.0338 8.6631H12.47C12.6471 8.6631 12.7765 8.6631 12.8582 8.65629C12.9127 8.64948 12.9671 8.63586 13.0148 8.60181V8.53371C13.0148 8.44518 13.0005 8.36345 12.9733 8.28173C12.8521 7.90037 12.4911 7.64158 12.0893 7.6552ZM13.8804 0.749756H3.32472C1.72434 0.749756 0.43042 2.04368 0.43042 3.64405V13.7911C0.43042 15.3915 1.72434 16.6854 3.32472 16.6854H13.8804C15.4808 16.6854 16.7747 15.3915 16.7747 13.7911V3.64405C16.7747 2.04368 15.4808 0.749756 13.8804 0.749756ZM9.08607 11.9939H7.66275C7.61508 12.0007 7.56741 11.966 7.55379 11.919L6.99536 10.2846H4.462L3.94443 11.8918C3.93081 11.9531 3.87633 11.9939 3.81504 11.9871H2.53474C2.45983 11.9871 2.4394 11.9463 2.45983 11.8645L4.65269 5.57812C4.67312 5.51002 4.69355 5.44873 4.72079 5.36701C4.74803 5.224 4.76165 5.07417 4.76165 4.92435C4.75484 4.8903 4.78208 4.85625 4.81613 4.84944H6.57995C6.62762 4.84944 6.66167 4.86987 6.66848 4.90392L9.15417 11.8843C9.1746 11.9592 9.15485 11.9939 9.08607 11.9939ZM14.4327 9.27601C14.4184 9.40472 14.4116 9.50074 14.4048 9.56203C14.3979 9.6097 14.3578 9.65057 14.3094 9.65057C14.2686 9.65057 14.1936 9.65738 14.0847 9.66487C13.9764 9.67849 13.8463 9.68462 13.6904 9.68462C13.5337 9.68462 13.3696 9.65738 13.1932 9.65738H11.0344C11.061 9.86849 11.1298 10.0796 11.2456 10.2635C11.3688 10.448 11.5391 10.5904 11.742 10.6728C12.0144 10.7885 12.3147 10.8498 12.6144 10.843C12.8527 10.8355 13.0904 10.8158 13.322 10.7681C13.5337 10.7415 13.7374 10.6871 13.9287 10.6115C13.9628 10.5849 13.9832 10.5979 13.9832 10.666V11.7086C13.9832 11.7351 13.9764 11.7631 13.9689 11.7896C13.9546 11.8101 13.9417 11.8244 13.9219 11.8373C13.704 11.9326 13.4793 12.0007 13.2409 12.0416C12.9202 12.1029 12.6008 12.1301 12.2739 12.1233C11.7556 12.1233 11.3205 12.0416 10.9663 11.885C10.6326 11.7413 10.3391 11.5165 10.1076 11.238C9.89034 10.9724 9.73303 10.6728 9.63768 10.3459C9.54234 10.0251 9.49535 9.69143 9.49535 9.35092C9.49535 8.98386 9.54983 8.62224 9.66561 8.26811C9.77457 7.92761 9.94482 7.61434 10.1764 7.33513C10.4011 7.06272 10.6796 6.8448 10.9997 6.68817C11.3205 6.53154 11.7011 6.47706 12.137 6.47706C12.4986 6.47025 12.8589 6.53835 13.1926 6.68817C13.4718 6.81075 13.7169 6.99462 13.9076 7.23298C14.0847 7.46452 14.2277 7.7233 14.3169 8.00933C14.4048 8.28173 14.4456 8.56095 14.4456 8.84016C14.4456 9.0036 14.4388 9.14662 14.4327 9.27601Z" fill="black"/>
</g>
<defs>
<clipPath id="clip0_827_155">
<rect width="16.3443" height="16.3443" fill="white" transform="translate(0.43042 0.54541)"/>
</clipPath>
</defs>
</svg>
