<svg width="17" height="17" viewBox="0 0 17 17" fill="none" xmlns="http://www.w3.org/2000/svg">
<g clip-path="url(#clip0_827_168)">
<path d="M7.8182 7.47506L8.43072 9.3933H6.43152L7.03246 7.47506C7.17119 7.01282 7.28669 6.46973 7.40218 6.01904H7.4253C7.54089 6.46976 7.66794 7.00126 7.8182 7.47506ZM16.8812 3.25096V14.1259C16.8812 15.6212 15.6578 16.8446 14.1624 16.8446H3.28758C1.79227 16.8446 0.568848 15.6211 0.568848 14.1258V3.25096C0.568848 1.75565 1.79227 0.532227 3.28758 0.532227H14.1625C15.6578 0.532227 16.8812 1.75565 16.8812 3.25096ZM10.9036 12.675L8.37282 4.88669H6.55867L4.06269 12.675H5.53026L6.20053 10.4679H8.6734L9.37831 12.675H10.9036ZM13.3065 7.04749H11.8736V12.675H13.3065V7.04749ZM13.3873 5.47598C13.3758 5.03686 13.0754 4.7018 12.59 4.7018C12.1162 4.7018 11.7927 5.03686 11.7927 5.47598C11.7927 5.90358 12.1047 6.23864 12.5785 6.23864C13.0754 6.23861 13.3873 5.90355 13.3873 5.47598Z" fill="black"/>
</g>
<defs>
<clipPath id="clip0_827_168">
<rect width="16.3443" height="16.3443" fill="white" transform="translate(0.552979 0.516357)"/>
</clipPath>
</defs>
</svg>
