<svg width="17" height="18" viewBox="0 0 17 18" fill="none" xmlns="http://www.w3.org/2000/svg">
<path d="M5.51438 8.24928C5.51046 8.38037 5.5278 8.51123 5.56574 8.63678C5.60325 8.74491 5.65011 8.84957 5.7058 8.94957C5.7257 8.97853 5.73702 9.01251 5.73848 9.04761C5.73602 9.07455 5.7271 9.10051 5.71247 9.12327C5.69784 9.14602 5.67794 9.16491 5.65444 9.17833L5.379 9.3604C5.34624 9.38381 5.3072 9.39682 5.26695 9.39775C5.24213 9.39735 5.21767 9.39173 5.19515 9.38128C5.17263 9.37083 5.15256 9.35576 5.13623 9.33706C5.07576 9.27648 5.0225 9.20912 4.9775 9.13631C4.93548 9.06162 4.89346 8.97758 4.84678 8.87954C4.69364 9.07087 4.49875 9.22462 4.27702 9.32901C4.0553 9.4334 3.81263 9.48566 3.56759 9.48179C3.40929 9.49034 3.25088 9.46707 3.10173 9.41334C2.95258 9.35962 2.81572 9.27653 2.69924 9.16899C2.59087 9.05961 2.50662 8.92874 2.45194 8.7848C2.39726 8.64086 2.37336 8.48706 2.38177 8.33332C2.37611 8.16412 2.4084 7.99579 2.47626 7.84069C2.54411 7.68558 2.64583 7.54763 2.77393 7.43695C3.07818 7.19979 3.45781 7.08043 3.84304 7.10082C3.99925 7.10012 4.1553 7.11105 4.30989 7.1335C4.47329 7.15684 4.63669 7.18952 4.80943 7.22687V6.9094C4.83437 6.65961 4.76065 6.40996 4.60401 6.21379C4.40217 6.05795 4.14796 5.98604 3.89439 6.01304C3.73714 6.01378 3.58049 6.03258 3.42753 6.06906C3.26832 6.10684 3.11224 6.15679 2.96068 6.21846L2.80661 6.27448H2.74125C2.67589 6.27448 2.64788 6.22779 2.64788 6.13909V5.92434C2.64374 5.87293 2.65341 5.82135 2.67589 5.77494C2.71063 5.73503 2.75364 5.70317 2.80194 5.68157C2.97674 5.59747 3.1598 5.53176 3.34817 5.48549C3.56928 5.42855 3.79679 5.40031 4.02511 5.40146C4.43668 5.36558 4.84584 5.49302 5.16424 5.75627C5.295 5.89982 5.39448 6.06898 5.45636 6.25303C5.51825 6.43708 5.54118 6.63198 5.52372 6.82537L5.51438 8.24928ZM3.74966 8.91222C3.90866 8.91246 4.06654 8.88562 4.21652 8.83286C4.37627 8.77834 4.51825 8.68153 4.62736 8.55274C4.69938 8.47485 4.75075 8.38015 4.77675 8.2773C4.80692 8.15357 4.82104 8.02647 4.81877 7.89914V7.70306C4.6816 7.67456 4.54285 7.65429 4.40326 7.64237C4.26321 7.64237 4.12782 7.64237 3.99243 7.64237C3.76419 7.62406 3.53663 7.68507 3.34817 7.81511C3.27533 7.87642 3.21795 7.954 3.18064 8.04159C3.14333 8.12918 3.12716 8.22432 3.13341 8.31931C3.12573 8.40391 3.13589 8.48917 3.16323 8.56959C3.19057 8.65001 3.23449 8.72379 3.29214 8.78617C3.42195 8.88711 3.58648 8.93244 3.74966 8.91222ZM7.24642 9.37908C7.18725 9.38458 7.12798 9.36976 7.07836 9.33706C7.03096 9.28989 6.99849 9.22982 6.98498 9.16432L5.96724 5.80295C5.94655 5.74586 5.93397 5.68614 5.92989 5.62555C5.92989 5.55552 5.96257 5.51817 6.0326 5.51817H6.4621C6.52127 5.51267 6.58055 5.52749 6.63017 5.56019C6.67565 5.6081 6.70643 5.66805 6.71888 5.73292L7.45184 8.63678L8.13812 5.73759C8.14528 5.67202 8.17498 5.61096 8.22216 5.56486C8.27351 5.53214 8.33425 5.51737 8.39489 5.52284H8.74504C8.80715 5.51737 8.86938 5.53211 8.92244 5.56486C8.96622 5.61333 8.99536 5.67323 9.00648 5.73759L9.68342 8.63678L10.4351 5.72359C10.4475 5.65871 10.4783 5.59876 10.5238 5.55085C10.5734 5.51815 10.6327 5.50333 10.6918 5.50883H11.098C11.1125 5.50738 11.1271 5.50915 11.1408 5.51403C11.1544 5.51891 11.1669 5.52678 11.1772 5.53705C11.1874 5.54733 11.1953 5.55976 11.2002 5.57345C11.2051 5.58714 11.2068 5.60175 11.2054 5.61621C11.2071 5.63952 11.2071 5.66293 11.2054 5.68624C11.2054 5.68624 11.2054 5.74693 11.1774 5.79362L10.1223 9.15499C10.1098 9.21986 10.079 9.27981 10.0336 9.32772C9.98339 9.35914 9.92455 9.37385 9.86549 9.36974H9.49201C9.43062 9.37627 9.36901 9.35962 9.31927 9.32306C9.27301 9.2763 9.24347 9.21558 9.23524 9.15032L8.55829 6.34918L7.88602 9.15032C7.87778 9.21558 7.84825 9.2763 7.80199 9.32306C7.75187 9.35883 7.69056 9.37539 7.62925 9.36974L7.24642 9.37908ZM12.8487 9.49112C12.6225 9.4922 12.3969 9.46714 12.1764 9.41643C12.0029 9.3816 11.8349 9.3235 11.6769 9.24369C11.621 9.21707 11.574 9.17493 11.5415 9.12231C11.5234 9.08274 11.5138 9.03978 11.5135 8.99626V8.77683C11.5135 8.68813 11.5462 8.64144 11.6115 8.64144C11.6394 8.63699 11.6677 8.63699 11.6956 8.64144L11.803 8.68813C11.9526 8.75499 12.1092 8.80509 12.2698 8.83752C12.4401 8.8746 12.6138 8.89338 12.788 8.89355C13.0092 8.90731 13.2296 8.85706 13.4229 8.74882C13.4931 8.70612 13.5508 8.64565 13.5902 8.57351C13.6295 8.50137 13.6491 8.42013 13.647 8.33799C13.6493 8.28213 13.64 8.2264 13.62 8.17422C13.5999 8.12204 13.5694 8.07451 13.5303 8.03453C13.4039 7.925 13.2536 7.84665 13.0915 7.80577L12.4612 7.60502C12.1886 7.53648 11.9449 7.38274 11.7656 7.16618C11.6246 6.98442 11.5475 6.76126 11.5462 6.53125C11.5436 6.36811 11.5839 6.20714 11.6629 6.06439C11.741 5.9241 11.8475 5.80165 11.9757 5.70491C12.116 5.60185 12.2743 5.52585 12.4425 5.48082C12.6216 5.42925 12.8071 5.40408 12.9934 5.40612C13.0898 5.39932 13.1865 5.39932 13.2829 5.40612L13.5677 5.45281L13.8151 5.52284L13.9972 5.59754C14.046 5.62638 14.0901 5.6626 14.1279 5.70491C14.1539 5.7486 14.1669 5.79882 14.1652 5.84964V6.05506C14.1652 6.14843 14.1326 6.19511 14.0672 6.19511C14.0079 6.18832 13.9507 6.16924 13.8991 6.13909C13.6342 6.02393 13.3477 5.96663 13.0588 5.97102C12.8586 5.96131 12.6593 6.00311 12.4799 6.0924C12.4133 6.13296 12.359 6.19089 12.3228 6.25998C12.2866 6.32907 12.2699 6.40671 12.2745 6.48456C12.2743 6.5421 12.2857 6.59908 12.3082 6.65204C12.3307 6.70501 12.3637 6.75286 12.4052 6.79269C12.543 6.90298 12.7019 6.98399 12.8721 7.03079L13.4883 7.22687C13.7495 7.29617 13.9838 7.4426 14.1606 7.64704C14.2944 7.8225 14.3651 8.03798 14.3613 8.25862C14.3641 8.43316 14.3257 8.60589 14.2493 8.76283C14.1743 8.91315 14.0657 9.04415 13.9318 9.14565C13.7933 9.257 13.6349 9.34097 13.465 9.39309C13.2612 9.45861 13.0487 9.49323 12.8347 9.49579L12.8487 9.49112Z" fill="#232F3E"/>
<path fill-rule="evenodd" clip-rule="evenodd" d="M13.6565 11.6385C12.0939 12.7004 10.2469 13.2651 8.35767 13.2585C5.96906 13.2714 3.66162 12.3924 1.88703 10.7935C1.75164 10.6721 1.88703 10.5041 2.03643 10.5974C4.00603 11.7259 6.23709 12.3183 8.50707 12.3155C10.2039 12.3086 11.8826 11.9658 13.4464 11.3071C13.6892 11.2043 13.8946 11.4658 13.6565 11.6385Z" fill="#232F3E"/>
<path fill-rule="evenodd" clip-rule="evenodd" d="M14.254 10.9709C14.0673 10.7328 13.0402 10.8589 12.578 10.9149C12.4379 10.9149 12.4193 10.8075 12.5453 10.7188C13.3623 10.1446 14.7069 10.308 14.8796 10.5041C15.0523 10.7002 14.8376 12.0447 14.0673 12.689C13.9506 12.787 13.8385 12.731 13.8899 12.6049C14.0486 12.1614 14.4361 11.195 14.254 10.9709Z" fill="#232F3E"/>
</svg>
