<svg width="17" height="17" viewBox="0 0 17 17" fill="none" xmlns="http://www.w3.org/2000/svg">
<circle cx="8.37379" cy="8.61891" r="8.17213" fill="black"/>
<path d="M12.5683 7.17627H9.81282L9.35356 9.88587H7.44002L5.1897 12.5648C5.1897 12.5648 5.29685 12.6567 5.44993 12.6567H11.4508C11.5886 12.6567 11.7111 12.5495 11.7417 12.4117L12.5683 7.17627Z" fill="url(#paint0_linear_827_76)"/>
<path d="M4.07198 4.40527C3.88827 4.40527 3.75051 4.57367 3.78113 4.74206L5.02111 12.3351C5.03642 12.4269 5.08235 12.5188 5.15889 12.58C5.15889 12.58 5.26605 12.6719 5.41913 12.6719L7.74602 9.88572H7.42455L6.91936 7.17612H9.81267H12.5682L12.9662 4.74206C12.9969 4.55836 12.8591 4.40527 12.6753 4.40527H4.07198Z" fill="white"/>
<defs>
<linearGradient id="paint0_linear_827_76" x1="12.9318" y1="8.38451" x2="8.61071" y2="11.3093" gradientUnits="userSpaceOnUse">
<stop offset="0.0718327" stop-color="white" stop-opacity="0.4"/>
<stop offset="1" stop-color="white"/>
</linearGradient>
</defs>
</svg>
