<svg width="18" height="14" viewBox="0 0 18 14" fill="none" xmlns="http://www.w3.org/2000/svg">
<g clip-path="url(#clip0_838_384)">
<path d="M9.74675 6.45529H8.05914V4.93874H9.74675V6.45529ZM9.74675 1.23926H8.05914V2.789H9.74675V1.23926ZM11.7433 4.93618H10.0557V6.45274H11.7433V4.93618ZM7.75276 3.09538H6.06515V4.62981H7.75276V3.09538ZM9.74675 3.09538H8.05914V4.62981H9.74675V3.09538ZM16.8138 5.6485C16.4462 5.40085 15.5985 5.31149 14.9475 5.43404C14.8632 4.82129 14.5211 4.28769 13.8981 3.8077L13.5407 3.57026L13.3033 3.9277C12.8335 4.63747 12.7058 5.8068 13.2088 6.57784C12.9867 6.69784 12.5501 6.86124 11.9731 6.85103H0.874644C0.652522 8.14801 1.02273 9.83308 1.99802 10.9896C2.94523 12.1105 4.36477 12.6798 6.22089 12.6798C10.2395 12.6798 13.2139 10.8288 14.6053 7.46633C15.1517 7.47654 16.3313 7.46888 16.9364 6.31232C16.9746 6.24849 17.1049 5.97531 17.1534 5.87573L16.8138 5.6485ZM3.76478 4.93618H2.07972V6.45274H3.76733V4.93618H3.76478ZM5.75877 4.93618H4.07116V6.45274H5.75877V4.93618ZM7.75276 4.93618H6.06515V6.45274H7.75276V4.93618ZM5.75877 3.09538H4.07116V4.62981H5.75877V3.09538Z" fill="black"/>
</g>
<defs>
<clipPath id="clip0_838_384">
<rect width="16.34" height="13.072" fill="white" transform="translate(0.813477 0.422363)"/>
</clipPath>
</defs>
</svg>
