<svg width="17" height="25" viewBox="0 0 17 25" fill="none" xmlns="http://www.w3.org/2000/svg">
<path fill-rule="evenodd" clip-rule="evenodd" d="M4.11477 9.57986C3.23834 9.00877 2.65894 8.02003 2.65894 6.89593C2.65894 5.12801 4.09212 3.69482 5.86004 3.69482H11.3446C13.1125 3.69482 14.5457 5.12801 14.5457 6.89593C14.5457 8.02003 13.9663 9.00877 13.0898 9.57986C13.9663 10.151 14.5457 11.1397 14.5457 12.2638C14.5457 14.0317 13.1125 15.4649 11.3446 15.4649H11.2862C10.4505 15.4649 9.68959 15.1447 9.11949 14.6202V17.6024C9.11949 19.3901 7.65495 20.8327 5.87455 20.8327C4.11026 20.8327 2.65894 19.4032 2.65894 17.6316C2.65894 16.5075 3.23831 15.5188 4.11471 14.9477C3.23831 14.3766 2.65894 13.3879 2.65894 12.2638C2.65894 11.1397 3.23834 10.151 4.11477 9.57986ZM9.11949 12.2638C9.11949 13.4605 10.0896 14.4305 11.2862 14.4305H11.3446C12.5412 14.4305 13.5113 13.4605 13.5113 12.2638C13.5113 11.0671 12.5412 10.0971 11.3446 10.0971H11.2862C10.0896 10.0971 9.11949 11.0671 9.11949 12.2638ZM8.08511 10.0971H5.86004C4.66338 10.0971 3.69332 11.0671 3.69332 12.2638C3.69332 13.458 4.65947 14.4266 5.85275 14.4305H5.85615H8.08511V10.0971ZM5.86004 15.4649C5.85761 15.4649 5.85518 15.4649 5.85275 15.4649C4.65947 15.4688 3.69332 16.4374 3.69332 17.6316C3.69332 18.8246 4.67427 19.7983 5.87455 19.7983C7.09094 19.7983 8.08511 18.8116 8.08511 17.6024V15.4649H5.86004ZM8.08511 9.06264H5.86004C4.66338 9.06264 3.69332 8.09258 3.69332 6.89593C3.69332 5.69927 4.66338 4.72921 5.86004 4.72921H8.08511V9.06264ZM11.3446 9.06264H9.11949V4.72921H11.3446C12.5412 4.72921 13.5113 5.69927 13.5113 6.89593C13.5113 8.09258 12.5412 9.06264 11.3446 9.06264Z" fill="black"/>
</svg>
