<svg width="17" height="18" viewBox="0 0 17 18" fill="none" xmlns="http://www.w3.org/2000/svg">
<mask id="mask0_838_328" style="mask-type:luminance" maskUnits="userSpaceOnUse" x="2" y="1" width="13" height="16">
<path d="M14.5641 1.27197H2.47559V16.3923H14.5641V1.27197Z" fill="white"/>
</mask>
<g mask="url(#mask0_838_328)">
<path d="M13.2167 6.54456C12.8772 6.07345 12.0965 5.10482 10.8973 3.66581C10.3767 3.04165 9.93019 2.51186 9.71036 2.25176C9.58915 2.10828 9.48517 1.98552 9.40309 1.88846L9.27226 1.73424L9.20129 1.65061L9.18748 1.63028L9.18133 1.6276L8.87866 1.27197L8.49502 1.57964C7.51563 2.36416 6.71344 3.37541 6.17599 4.5025C5.84644 5.17309 5.63124 5.82871 5.51844 6.5039C5.48892 6.65581 5.4636 6.81194 5.44249 6.96848C5.3109 6.95772 5.17702 6.95083 5.04428 6.94775C5.03317 6.94699 5.02203 6.94661 5.00708 6.94623C4.52102 6.92934 4.03763 6.98727 3.57077 7.11886L3.3709 7.17485L3.2681 7.35516C2.78625 8.2003 2.51349 9.16245 2.47935 10.1372C2.43523 11.4032 2.78011 12.6285 3.47679 13.6808C4.15849 14.7101 5.12138 15.4969 6.26153 15.9561L6.41001 16.016L6.45489 16.0317L6.4568 16.0309C7.05067 16.2465 7.67407 16.367 8.30972 16.3889C8.38186 16.3915 8.4536 16.3927 8.52533 16.3927C9.32749 16.3927 10.1086 16.2358 10.8498 15.9254L10.8551 15.9277L11.0523 15.8364C12.052 15.3742 12.9075 14.6476 13.5263 13.7349C14.1628 12.7962 14.5203 11.6978 14.5602 10.5589C14.6078 9.19736 14.1555 7.84697 13.2164 6.54495L13.2167 6.54456ZM8.75398 10.763C8.96076 11.5467 8.92008 12.2998 8.63391 13.0045C7.91882 12.2986 7.39438 11.5225 7.07445 10.6954C6.73188 9.81077 6.52586 8.96909 6.46064 8.19071C6.76333 8.29008 7.04147 8.42127 7.28929 8.58279C8.00207 9.04736 8.49502 9.78086 8.75398 10.7633V10.763ZM8.8844 14.557C9.18824 14.7884 9.5078 15.0051 9.83735 15.2046C9.35205 15.3366 8.85142 15.3945 8.34502 15.3765C8.26678 15.3738 8.18851 15.3692 8.10986 15.3627C8.39834 15.114 8.65768 14.8444 8.88402 14.557H8.8844ZM9.73299 10.5048C9.40769 9.27179 8.77125 8.33957 7.84172 7.7342C7.4339 7.46873 6.96933 7.26731 6.45911 7.13575C6.46641 7.05094 6.47561 6.96654 6.48634 6.8837C6.49555 6.81273 6.50513 6.74751 6.51551 6.6865C6.59953 6.25262 6.72458 5.82334 6.88648 5.41095C6.94863 5.25289 7.01652 5.096 7.08864 4.94444L7.09133 4.93908C7.20258 4.71388 7.32802 4.4864 7.47573 4.24318L7.53366 4.14765L7.53172 4.14651C7.8747 3.61058 8.28557 3.12183 8.75551 2.69101L8.93696 2.90546C9.36011 3.40686 9.75794 3.88103 10.1197 4.31492C10.9334 5.29088 11.9883 6.57256 12.3954 7.13765C13.2002 8.25324 13.5881 9.39225 13.5486 10.524C13.5179 11.4028 13.2578 12.2599 12.7959 13.0018C12.3586 13.705 11.7493 14.2935 11.0316 14.7078C10.6311 14.5079 10.0495 14.1792 9.43185 13.7008C9.92981 12.7083 10.0315 11.6338 9.73337 10.5048H9.73299ZM8.11062 13.9052C7.65411 14.4968 7.11089 14.8816 6.79403 15.0749C6.74261 15.0561 6.69119 15.0366 6.64057 15.0158L6.59991 14.9997C5.66117 14.6119 4.86936 13.9563 4.31002 13.1031C3.73842 12.2311 3.4553 11.2175 3.49174 10.1718C3.51783 9.42217 3.70465 8.70594 4.04763 8.04264C4.24673 7.99852 4.44967 7.97088 4.65261 7.96053L4.70515 7.95939C4.8076 7.95708 4.90964 7.95708 5.0067 7.95939C5.1494 7.9659 5.29249 7.98088 5.43329 8.00351C5.47931 8.95643 5.71333 9.98457 6.12956 11.0603C6.53046 12.0957 7.19645 13.0521 8.11024 13.9049L8.11062 13.9052Z" fill="#212121"/>
</g>
</svg>
