<svg width="17" height="18" viewBox="0 0 17 18" fill="none" xmlns="http://www.w3.org/2000/svg">
<g clip-path="url(#clip0_827_64)">
<path d="M5.66842 13.3408C5.66842 13.4067 5.59263 13.4595 5.49707 13.4595C5.38832 13.4693 5.31254 13.4166 5.31254 13.3408C5.31254 13.2749 5.38832 13.2222 5.48389 13.2222C5.58274 13.2123 5.66842 13.265 5.66842 13.3408ZM4.64361 13.1926C4.62054 13.2585 4.68644 13.3342 4.7853 13.354C4.87098 13.387 4.96983 13.354 4.9896 13.2881C5.00938 13.2222 4.94677 13.1464 4.84791 13.1168C4.76223 13.0937 4.66667 13.1266 4.64361 13.1926ZM6.10009 13.1365C6.00453 13.1596 5.93863 13.2222 5.94851 13.298C5.9584 13.3639 6.04407 13.4067 6.14293 13.3837C6.23849 13.3606 6.30439 13.298 6.29451 13.2321C6.28462 13.1695 6.19565 13.1266 6.10009 13.1365ZM8.26834 0.509277C3.69788 0.509277 0.20166 3.97914 0.20166 8.5496C0.20166 12.204 2.50172 15.3311 5.78705 16.4317C6.20883 16.5075 6.35712 16.2472 6.35712 16.033C6.35712 15.8287 6.34723 14.7018 6.34723 14.0098C6.34723 14.0098 4.04058 14.504 3.55619 13.0278C3.55619 13.0278 3.18053 12.0689 2.64012 11.8217C2.64012 11.8217 1.88551 11.3044 2.69284 11.3143C2.69284 11.3143 3.51335 11.3802 3.96479 12.1644C4.68644 13.4364 5.89579 13.0706 6.367 12.8531C6.44279 12.3259 6.65698 11.9601 6.89424 11.7427C5.05221 11.5384 3.19371 11.2714 3.19371 8.10145C3.19371 7.19526 3.44415 6.74053 3.97138 6.16057C3.88571 5.94638 3.60561 5.06326 4.05706 3.92312C4.74576 3.70893 6.33076 4.81283 6.33076 4.81283C6.9898 4.62829 7.69827 4.53273 8.40015 4.53273C9.10203 4.53273 9.8105 4.62829 10.4695 4.81283C10.4695 4.81283 12.0545 3.70563 12.7432 3.92312C13.1947 5.06656 12.9146 5.94638 12.8289 6.16057C13.3561 6.74382 13.6791 7.19856 13.6791 8.10145C13.6791 11.2813 11.7382 11.5351 9.89618 11.7427C10.1993 12.003 10.4564 12.4973 10.4564 13.2716C10.4564 14.3821 10.4465 15.7562 10.4465 16.0264C10.4465 16.2406 10.5981 16.5009 11.0165 16.4252C14.3118 15.3311 16.5459 12.204 16.5459 8.5496C16.5459 3.97914 12.8388 0.509277 8.26834 0.509277ZM3.40461 11.8745C3.36177 11.9074 3.37165 11.9832 3.42767 12.0458C3.4804 12.0985 3.55619 12.1216 3.59902 12.0788C3.64186 12.0458 3.63198 11.97 3.57596 11.9074C3.52323 11.8547 3.44744 11.8316 3.40461 11.8745ZM3.04872 11.6076C3.02566 11.6504 3.05861 11.7031 3.12451 11.7361C3.17724 11.769 3.24314 11.7591 3.26621 11.713C3.28927 11.6702 3.25632 11.6174 3.19042 11.5845C3.12451 11.5647 3.07179 11.5746 3.04872 11.6076ZM4.11637 12.7807C4.06365 12.8235 4.08342 12.9223 4.15921 12.985C4.235 13.0607 4.33056 13.0706 4.3734 13.0179C4.41624 12.9751 4.39647 12.8762 4.33056 12.8136C4.25807 12.7378 4.15921 12.7279 4.11637 12.7807ZM3.74072 12.2963C3.688 12.3292 3.688 12.4149 3.74072 12.4907C3.79344 12.5665 3.88241 12.5994 3.92525 12.5665C3.97797 12.5236 3.97797 12.4379 3.92525 12.3622C3.87912 12.2864 3.79344 12.2534 3.74072 12.2963Z" fill="black"/>
</g>
<defs>
<clipPath id="clip0_827_64">
<rect width="16.3443" height="16.8715" fill="white" transform="translate(0.20166 0.245605)"/>
</clipPath>
</defs>
</svg>
