<svg width="18" height="19" viewBox="0 0 18 19" fill="none" xmlns="http://www.w3.org/2000/svg">
<path fill-rule="evenodd" clip-rule="evenodd" d="M9.11324 7.64675H6.41038L6.22327 5.55047H9.11324L9.11324 5.55046H14.0572L14.2405 3.50322H9.11324L9.11324 3.50317H3.98602L3.98603 3.50323H3.98597L4.53819 9.694H9.11325V9.69394H9.11329V9.69399H11.6331L11.3956 12.3491L9.11324 12.9652V12.9651L9.11041 12.966L6.83043 12.3503L6.67823 10.645L6.67823 10.645H4.62317L4.62318 10.645H4.62313L4.91638 13.932L9.10997 15.0961L9.11324 15.0952V15.0952L13.3092 13.932L13.8708 7.64679H9.11324L9.11324 7.64675ZM14.6192 14.6072L15.7933 1.45598L15.7932 1.45597L14.6192 14.6072ZM2.4294 16.7826L0.941162 0.0910645H17.2854L15.7954 16.7835L9.10924 18.637L2.4294 16.7826Z" fill="black"/>
</svg>
