<svg width="17" height="17" viewBox="0 0 17 17" fill="none" xmlns="http://www.w3.org/2000/svg">
<circle cx="8.37379" cy="8.82008" r="8.17213" fill="black"/>
<path d="M12.5767 4.22314H8.15063C8.15063 5.32638 9.04376 6.21948 10.147 6.21948H10.9612V7.00752C10.9612 8.11075 11.8543 9.00384 12.9576 9.00384V4.60403C12.9576 4.39388 12.7868 4.22314 12.5767 4.22314Z" fill="white"/>
<path d="M10.3831 6.4292H5.95703C5.95703 7.53243 6.85011 8.42552 7.95335 8.42552H8.76764V9.21357C8.76764 10.3168 9.66072 11.2099 10.764 11.2099V6.81008C10.7771 6.59993 10.6064 6.4292 10.3831 6.4292Z" fill="url(#paint0_linear_827_91)"/>
<path d="M8.20291 8.63574H3.77686C3.77686 9.73898 4.66994 10.6321 5.77317 10.6321H6.58747V11.4201C6.58747 12.5234 7.48055 13.4164 8.58379 13.4164V9.01663C8.58379 8.80648 8.41306 8.63574 8.20291 8.63574Z" fill="url(#paint1_linear_827_91)"/>
<defs>
<linearGradient id="paint0_linear_827_91" x1="10.678" y1="6.43401" x2="8.79468" y2="8.3761" gradientUnits="userSpaceOnUse">
<stop offset="0.176" stop-color="white" stop-opacity="0.4"/>
<stop offset="1" stop-color="white"/>
</linearGradient>
<linearGradient id="paint1_linear_827_91" x1="8.61195" y1="8.65248" x2="6.43451" y2="10.7711" gradientUnits="userSpaceOnUse">
<stop offset="0.176" stop-color="white" stop-opacity="0.4"/>
<stop offset="1" stop-color="white"/>
</linearGradient>
</defs>
</svg>
