<svg width="18" height="17" viewBox="0 0 18 17" fill="none" xmlns="http://www.w3.org/2000/svg">
<g clip-path="url(#clip0_827_214)">
<path d="M0.941162 0.317383V16.6616H17.2854V0.317383H0.941162ZM9.83565 13.0644C9.83565 14.6551 8.90169 15.3811 7.54088 15.3811C6.31142 15.3811 5.6 14.7463 5.23518 13.9765L6.48653 13.2213C6.72732 13.6482 6.94622 14.0093 7.47522 14.0093C7.97868 14.0093 8.29973 13.8123 8.29973 13.0426V7.82188H9.83565V13.0644ZM13.4693 15.3811C12.0429 15.3811 11.1198 14.7025 10.6711 13.8123L11.9225 13.09C12.2508 13.6263 12.6813 14.0239 13.4365 14.0239C14.0713 14.0239 14.4799 13.7065 14.4799 13.2651C14.4799 12.7397 14.064 12.5537 13.3599 12.2436L12.9768 12.0794C11.8677 11.6088 11.1344 11.0141 11.1344 9.76276C11.1344 8.6099 12.0137 7.73432 13.3818 7.73432C14.3595 7.73432 15.06 8.07361 15.5634 8.96379L14.3668 9.72992C14.1041 9.2593 13.8196 9.07323 13.3781 9.07323C12.9294 9.07323 12.6448 9.3578 12.6448 9.72992C12.6448 10.1896 12.9294 10.3757 13.5897 10.6639L13.9728 10.8281C15.2789 11.3862 16.0122 11.959 16.0122 13.2432C16.0122 14.6223 14.925 15.3811 13.4693 15.3811Z" fill="black"/>
</g>
<defs>
<clipPath id="clip0_827_214">
<rect width="16.3443" height="16.4124" fill="white" transform="translate(0.941162 0.292236)"/>
</clipPath>
</defs>
</svg>
