<svg width="18" height="17" viewBox="0 0 18 17" fill="none" xmlns="http://www.w3.org/2000/svg">
<path d="M7.79159 15.0215L2.80218 12.1438C2.72862 12.0962 2.67236 12.0702 2.67236 11.975V3.28141C2.67236 3.21081 2.71564 3.16457 2.75458 3.14294L5.28607 1.68463C5.36829 1.63703 5.43753 1.63703 5.51542 1.68463L8.0296 3.12995C8.12913 3.18621 8.13345 3.25977 8.13345 3.32468V8.70788L10.2322 7.50056V4.74838C10.2322 4.65317 10.2755 4.59692 10.3793 4.53634L12.8849 3.09534C12.9454 3.06072 12.993 3.06072 13.0536 3.09534L15.6068 4.56663C15.689 4.61423 15.6976 4.67048 15.6976 4.7527V7.61307C15.6976 7.70394 15.676 7.75154 15.5851 7.8078L13.1748 9.19254V11.9361C13.1748 12.0443 13.1488 12.0875 13.0536 12.1438L8.04691 15.0215C7.95171 15.0734 7.8868 15.0734 7.79159 15.0215ZM7.7137 14.4892V12.0745L5.32502 10.7244C5.24712 10.6768 5.19087 10.6422 5.19087 10.5254V4.88685L3.08779 3.67953V11.8279L7.7137 14.4892ZM12.7594 11.8279V9.43055L8.13345 12.0745V14.4892L12.7594 11.8279ZM12.5384 9.07426L10.4442 7.85973L5.83131 10.521L7.91709 11.7067L12.5384 9.07426ZM7.7137 8.94589V3.6752L5.61495 4.88685V10.1575L7.7137 8.94589ZM12.7594 8.70356V6.31487L10.6563 5.10322V7.50056L12.7594 8.70356ZM15.2779 7.50056V5.10322L13.1748 6.31487V8.70356L15.2779 7.50056ZM12.9671 5.94705L15.0615 4.73972L12.9671 3.5324L10.8683 4.73972L12.9671 5.94705ZM7.49851 3.31174L5.39858 2.10438L3.30415 3.3117L5.39858 4.52336L7.49851 3.31174Z" fill="black"/>
</svg>
