<svg width="18" height="18" viewBox="0 0 18 18" fill="none" xmlns="http://www.w3.org/2000/svg">
<g clip-path="url(#clip0_837_242)">
<g clip-path="url(#clip1_837_242)">
<path d="M11.8037 7.49902H14.6499V8.02435H13.5208V10.788H12.9563V8.02435H11.8037V7.49902Z" fill="black"/>
<path d="M7.12299 7.49902V8.02435H4.84161V8.86943H6.67629V9.39475H4.84161V10.2627H7.12299V10.788H4.27709V8.02435H4.27686V7.49902H7.12299Z" fill="black"/>
<path d="M8.54396 7.5H7.80518L10.4513 10.789H11.1923L9.86903 9.14562L11.1902 7.50251L10.4513 7.50365L9.49914 8.68625L8.54396 7.5Z" fill="black"/>
<path d="M9.30223 9.84965L8.93226 9.38965L7.80322 10.7918H8.54412L9.30223 9.84965Z" fill="black"/>
<path fill-rule="evenodd" clip-rule="evenodd" d="M4.29654 10.7879L1.64681 7.49756H0.941162V10.7865H1.50568V8.20058L3.58736 10.7879H4.29654Z" fill="black"/>
<path d="M14.7768 10.7679C14.7354 10.7679 14.7003 10.7535 14.6708 10.7249C14.6414 10.6962 14.6268 10.6616 14.6272 10.6205C14.6268 10.5805 14.6414 10.5462 14.6708 10.5176C14.7003 10.4889 14.7354 10.4746 14.7768 10.4746C14.8166 10.4746 14.8514 10.4889 14.8808 10.5176C14.9107 10.5462 14.9256 10.5805 14.926 10.6205C14.9256 10.6476 14.9187 10.6725 14.9049 10.6947C14.8908 10.7173 14.8728 10.7351 14.8502 10.7479C14.828 10.7611 14.8035 10.7679 14.7768 10.7679Z" fill="black"/>
<path d="M15.7401 9.38232H15.9903V10.3461C15.9899 10.4347 15.9707 10.5104 15.9333 10.5741C15.8954 10.6378 15.843 10.6865 15.7757 10.7208C15.7088 10.7547 15.6303 10.772 15.5412 10.772C15.4597 10.772 15.3867 10.7573 15.3217 10.7287C15.2566 10.7 15.205 10.6571 15.1671 10.6005C15.1289 10.544 15.1101 10.4735 15.1101 10.3891H15.3607C15.3611 10.426 15.3695 10.458 15.3855 10.4848C15.4016 10.5116 15.4238 10.5319 15.4521 10.5462C15.4807 10.5606 15.5137 10.5677 15.5507 10.5677C15.5909 10.5677 15.6254 10.5594 15.6533 10.5425C15.6812 10.5259 15.7026 10.501 15.7175 10.4678C15.7321 10.4351 15.7397 10.3944 15.7401 10.3461V9.38232Z" fill="black"/>
<path d="M17.0196 9.75916C17.0135 9.70073 16.9867 9.65513 16.94 9.62271C16.8929 9.58992 16.8321 9.57371 16.7575 9.57371C16.7051 9.57371 16.66 9.58163 16.6225 9.59708C16.585 9.61291 16.556 9.63402 16.5361 9.66078C16.5162 9.68754 16.5063 9.71807 16.5055 9.75238C16.5055 9.78102 16.5123 9.8059 16.5257 9.82663C16.5391 9.84773 16.5571 9.86545 16.5804 9.87977C16.6034 9.89447 16.629 9.90653 16.657 9.91633C16.6852 9.92613 16.7136 9.93443 16.7419 9.94121L16.8723 9.97325C16.9247 9.98531 16.9756 10.0015 17.0242 10.0222C17.0727 10.0426 17.1167 10.0686 17.1553 10.0999C17.194 10.1312 17.2246 10.1689 17.2471 10.213C17.2697 10.2571 17.2812 10.3087 17.2812 10.3683C17.2812 10.4485 17.2605 10.519 17.2188 10.5801C17.1771 10.6408 17.1171 10.6883 17.0383 10.7226C16.9599 10.7565 16.865 10.7738 16.7533 10.7738C16.6455 10.7738 16.5514 10.7572 16.4722 10.7241C16.3927 10.6913 16.3307 10.643 16.2859 10.5797C16.2412 10.5164 16.2171 10.4391 16.2136 10.3483H16.4615C16.4649 10.3958 16.4802 10.4354 16.5063 10.4674C16.5326 10.499 16.567 10.5224 16.6091 10.5382C16.6516 10.5537 16.699 10.5616 16.7514 10.5616C16.8061 10.5616 16.8543 10.5533 16.896 10.5371C16.9373 10.5209 16.9698 10.4983 16.9932 10.4689C17.0169 10.4399 17.0288 10.4056 17.0291 10.3664C17.0288 10.3306 17.018 10.3008 16.9974 10.2774C16.9763 10.2541 16.9473 10.2345 16.9101 10.2186C16.8727 10.2028 16.8291 10.1885 16.7793 10.176L16.621 10.1361C16.5066 10.1071 16.416 10.063 16.3498 10.0038C16.2833 9.9446 16.2503 9.8662 16.2503 9.76783C16.2503 9.68717 16.2725 9.61631 16.3173 9.55562C16.3616 9.49494 16.4225 9.44783 16.4994 9.41428C16.5766 9.38036 16.6638 9.36377 16.761 9.36377C16.8597 9.36377 16.9461 9.38036 17.0207 9.41428C17.0953 9.44783 17.1538 9.49456 17.1963 9.55411C17.2387 9.61367 17.2609 9.68189 17.2621 9.75916H17.0196Z" fill="black"/>
</g>
</g>
<defs>
<clipPath id="clip0_837_242">
<rect width="16.34" height="16.34" fill="white" transform="translate(0.941162 0.986328)"/>
</clipPath>
<clipPath id="clip1_837_242">
<rect width="16.34" height="3.31777" fill="white" transform="translate(0.941162 7.49756)"/>
</clipPath>
</defs>
</svg>
