<svg width="17" height="17" viewBox="0 0 17 17" fill="none" xmlns="http://www.w3.org/2000/svg">
<path d="M9.23661 13.1607H14.2433C14.4031 13.1607 14.556 13.1046 14.6943 13.0254C14.8327 12.9462 14.9753 12.8468 15.0552 12.7096C15.135 12.5725 15.1906 12.4169 15.1905 12.2586C15.1904 12.1002 15.1352 11.9446 15.0552 11.8076L11.6723 5.98897C11.5924 5.85184 11.4949 5.75239 11.3566 5.67321C11.2182 5.59407 11.0201 5.5379 10.8604 5.5379C10.7007 5.5379 10.5477 5.59407 10.4094 5.67321C10.271 5.75239 10.1734 5.85184 10.0936 5.98897L9.23661 7.47744L7.5226 4.59059C7.44269 4.45349 7.34526 4.30902 7.20688 4.22987C7.0685 4.15069 6.9156 4.13965 6.75584 4.13965C6.59607 4.13965 6.44314 4.15069 6.30476 4.22987C6.16641 4.30902 6.02385 4.45349 5.94394 4.59059L1.74915 11.8076C1.66917 11.9446 1.65901 12.1002 1.65894 12.2586C1.65887 12.4169 1.6693 12.5725 1.74915 12.7096C1.829 12.8468 1.97163 12.9462 2.10999 13.0254C2.24835 13.1046 2.40127 13.1607 2.56104 13.1607H5.7184C6.96947 13.1607 7.88007 12.5995 8.51494 11.5369L10.0485 8.87569L10.8604 7.47744L13.3412 11.7173H10.0485L9.23661 13.1607ZM5.67331 11.7173H3.46313L6.75584 6.03407L8.42472 8.87569L7.31925 10.8028C6.89766 11.4922 6.41697 11.7173 5.67331 11.7173Z" fill="black"/>
</svg>
