<svg width="18" height="14" viewBox="0 0 18 14" fill="none" xmlns="http://www.w3.org/2000/svg">
<g clip-path="url(#clip0_808_1416)">
<path d="M9.11116 2.90768C13.4872 2.90768 16.8522 4.75104 16.8522 6.77567C16.8522 8.8003 13.4847 10.6437 9.11116 10.6437C4.73511 10.6437 1.37009 8.8003 1.37009 6.77567C1.37009 4.75104 4.73766 2.90768 9.11116 2.90768ZM9.11116 2.47876C4.59979 2.47876 0.941162 4.40126 0.941162 6.77567C0.941162 9.15008 4.59979 11.0726 9.11116 11.0726C13.6225 11.0726 17.2812 9.15008 17.2812 6.77567C17.2812 4.40126 13.6225 2.47876 9.11116 2.47876ZM6.51208 6.431C6.31038 7.46501 5.59806 7.35778 4.72234 7.35778L5.07212 5.55528C6.04231 5.55528 6.70101 5.4506 6.51208 6.431ZM3.42791 9.18327H4.3649L4.58702 8.03947C5.63636 8.03947 6.28741 8.11606 6.88994 7.55182C7.55631 6.93907 7.72992 5.84888 7.25504 5.30252C7.00739 5.01657 6.6091 4.87614 6.06784 4.87614H4.26278L3.42791 9.18327ZM8.16906 3.72979H9.10095L8.87883 4.87359C9.68306 4.87359 10.4286 4.81487 10.7886 5.14678C11.1664 5.494 10.9852 5.93824 10.5767 8.03436H9.632C10.0252 6.00718 10.0992 5.83867 9.95625 5.68548C9.81838 5.5374 9.50434 5.56804 8.74607 5.56804L8.26608 8.03436H7.33419L8.16906 3.72979ZM13.8344 6.431C13.6302 7.48033 12.8974 7.35778 12.0447 7.35778L12.3945 5.55528C13.3698 5.55528 14.0234 5.4506 13.8344 6.431ZM10.7503 9.18327H11.6898L11.9119 8.03947C13.0149 8.03947 13.6251 8.10329 14.2149 7.55182C14.8812 6.93907 15.0548 5.84888 14.58 5.30252C14.3323 5.01657 13.934 4.87614 13.3928 4.87614H11.5877L10.7503 9.18327Z" fill="black"/>
</g>
<defs>
<clipPath id="clip0_808_1416">
<rect width="16.34" height="13.072" fill="white" transform="translate(0.941162 0.239502)"/>
</clipPath>
</defs>
</svg>
