<svg width="18" height="17" viewBox="0 0 18 17" fill="none" xmlns="http://www.w3.org/2000/svg">
<g clip-path="url(#clip0_827_108)">
<path d="M8.99428 15.8714C13.0634 15.8714 16.3621 12.5727 16.3621 8.50356C16.3621 4.43443 13.0634 1.13574 8.99428 1.13574C4.92515 1.13574 1.62646 4.43443 1.62646 8.50356C1.62646 12.5727 4.92515 15.8714 8.99428 15.8714Z" fill="white"/>
<path d="M13.664 4.37981C13.6527 4.385 13.6428 4.39287 13.6353 4.40275C13.6269 4.41183 13.6206 4.42258 13.6167 4.43429C13.6146 4.44615 13.6146 4.45827 13.6167 4.47013C13.6178 4.48259 13.6212 4.49474 13.6267 4.50598C13.6514 4.55463 13.6608 4.60957 13.6539 4.66368C13.647 4.71625 13.6257 4.76588 13.5923 4.80705C13.5845 4.81629 13.5786 4.82704 13.5752 4.83864C13.5717 4.85024 13.5707 4.86243 13.5722 4.87444C13.5735 4.8865 13.5772 4.89817 13.5831 4.90876C13.589 4.91936 13.597 4.92865 13.6066 4.93609C13.6249 4.95161 13.6486 4.95933 13.6726 4.95759C13.6847 4.95684 13.6965 4.95365 13.7073 4.94823C13.7182 4.94282 13.7278 4.93527 13.7356 4.92605C13.7938 4.85622 13.8307 4.7711 13.8417 4.68089C13.8521 4.59022 13.8356 4.49852 13.7944 4.41709C13.7834 4.39547 13.7644 4.37901 13.7414 4.37121C13.7155 4.3637 13.6876 4.36679 13.664 4.37981Z" fill="#FF6C37"/>
<path d="M10.0552 0.382465C8.46625 0.180607 6.85316 0.454322 5.41977 1.16901C3.98637 1.88371 2.79703 3.00729 2.00205 4.39777C1.20707 5.78824 0.842152 7.38317 0.953408 8.98099C1.06466 10.5788 1.6471 12.1078 2.62711 13.3747C3.60712 14.6415 4.9407 15.5895 6.45931 16.0986C7.97792 16.6077 9.61338 16.6553 11.159 16.2351C12.7046 15.815 14.091 14.9461 15.1429 13.7383C16.1948 12.5305 16.865 11.0379 17.0689 9.44922C17.3398 7.31706 16.7532 5.16455 15.4382 3.46452C14.1231 1.7645 12.187 0.655977 10.0552 0.382465ZM11.7254 5.43628C11.5746 5.43768 11.4303 5.49846 11.324 5.60546L8.31321 8.61624L7.67091 7.97394C10.6373 5.01477 11.1735 4.9861 11.7254 5.43628ZM8.43651 8.7166L11.4387 5.72015C11.4879 5.67111 11.5485 5.63506 11.6151 5.61527C11.6816 5.59548 11.7521 5.59257 11.8201 5.60679C11.888 5.62101 11.9514 5.65192 12.0045 5.69674C12.0575 5.74156 12.0986 5.79888 12.124 5.86352C12.1445 5.91652 12.1542 5.97305 12.1527 6.02983C12.1509 6.08699 12.1373 6.14315 12.1125 6.19471C12.088 6.24643 12.0534 6.29274 12.0107 6.33091L8.83365 9.11374L8.43651 8.7166ZM8.66017 9.18542L7.91608 9.34887C7.91202 9.35069 7.90762 9.35163 7.90317 9.35163C7.89873 9.35163 7.89433 9.35069 7.89027 9.34887C7.88183 9.34556 7.87475 9.3395 7.8702 9.33166C7.86746 9.32328 7.86746 9.31424 7.8702 9.30585C7.87192 9.2969 7.87586 9.28852 7.88167 9.28148L8.31178 8.85137L8.66017 9.18542ZM6.76481 8.87574L7.55192 8.08434L8.1469 8.67646L6.80782 8.9632C6.79724 8.96743 6.78543 8.96743 6.77485 8.9632C6.76446 8.95838 6.75591 8.95034 6.75047 8.94026C6.74708 8.93002 6.74708 8.91896 6.75047 8.90872C6.75073 8.89627 6.75588 8.88442 6.76481 8.87574ZM4.29883 12.9661C4.28927 12.965 4.28026 12.961 4.27303 12.9546C4.26492 12.9494 4.25846 12.9419 4.25439 12.9331C4.25072 12.9239 4.25072 12.9137 4.25439 12.9045C4.25664 12.8954 4.26107 12.887 4.26729 12.8801L4.90673 12.2407L5.73397 13.0665L4.29883 12.9661ZM5.93899 12.1174C5.90899 12.1333 5.88488 12.1584 5.87018 12.189C5.85539 12.2203 5.85185 12.2558 5.86014 12.2894L5.99634 12.8729C6.00213 12.8901 6.00213 12.9088 5.99634 12.926C5.98919 12.9426 5.97654 12.9563 5.9605 12.9647C5.94464 12.9744 5.92577 12.978 5.90745 12.9747C5.88982 12.9727 5.87326 12.9652 5.86014 12.9532L5.03003 12.1245L7.56625 9.58543L8.79781 9.32163L9.38849 9.91231C8.53831 10.6535 7.3813 11.3962 5.93899 12.1159V12.1174ZM9.50749 9.80335L8.93401 9.22987L12.1168 6.45134C12.1469 6.42589 12.1738 6.39702 12.1971 6.36532C12.0968 7.27429 10.8251 8.55603 9.50892 9.80622L9.50749 9.80335ZM11.9792 5.44058C11.7526 5.21675 11.6217 4.91375 11.6139 4.59533C11.6062 4.27692 11.7222 3.96791 11.9377 3.73333C12.1531 3.49875 12.4512 3.35688 12.7691 3.33757C13.087 3.31826 13.4 3.42302 13.6423 3.62981L12.5513 4.71799C12.5442 4.72567 12.5384 4.73437 12.534 4.7438C12.5293 4.75365 12.5269 4.76443 12.5269 4.77534C12.5269 4.78626 12.5293 4.79704 12.534 4.80688C12.5384 4.81631 12.5442 4.82502 12.5513 4.83269L13.3943 5.67428C13.1638 5.78786 12.9035 5.8264 12.6499 5.78449C12.3964 5.74258 12.1623 5.62231 11.9806 5.44058H11.9792ZM13.7226 5.44058C13.6664 5.49447 13.605 5.54251 13.5391 5.58395L12.7233 4.77534L13.7599 3.74021C13.9734 3.97445 14.0882 4.28216 14.0802 4.59904C14.0721 4.91591 13.942 5.21743 13.7169 5.44058H13.7226Z" fill="black"/>
</g>
<defs>
<clipPath id="clip0_827_108">
<rect width="16.3443" height="16.3443" fill="white" transform="translate(0.813721 0.245605)"/>
</clipPath>
</defs>
</svg>
