<svg width="20" height="18" viewBox="0 0 20 18" fill="none" xmlns="http://www.w3.org/2000/svg">
<g clip-path="url(#clip0_808_1374)">
<path d="M16.0407 6.08169C15.8453 6.01462 15.6484 5.95233 15.4498 5.89484C15.4828 5.76069 15.5134 5.62601 15.5417 5.4908C15.9888 3.31889 15.6966 1.56859 14.6968 0.992078C13.7387 0.439519 12.172 1.01603 10.5894 2.39344C10.4334 2.52918 10.2812 2.66892 10.1326 2.81265C10.0331 2.71683 9.93196 2.62314 9.82922 2.53158C8.16994 1.05995 6.50668 0.440317 5.50856 1.01683C4.55276 1.57099 4.26929 3.21669 4.67014 5.27521C4.71113 5.47909 4.75637 5.68191 4.80588 5.88366C4.57192 5.95074 4.34435 6.0218 4.12716 6.09766C2.18282 6.77638 0.941162 7.83838 0.941162 8.9403C0.941162 10.0782 2.27465 11.22 4.29963 11.9107C4.46359 11.9671 4.62915 12.0193 4.7963 12.0672C4.742 12.2839 4.69409 12.5021 4.65257 12.722C4.26769 14.7446 4.56793 16.3511 5.52293 16.9021C6.50827 17.4706 8.16276 16.8861 9.77492 15.4776C9.90268 15.3669 10.0304 15.2492 10.1582 15.1247C10.319 15.2806 10.484 15.4318 10.6533 15.5782C12.2151 16.9213 13.7562 17.4626 14.7096 16.9117C15.6958 16.3408 16.016 14.6152 15.5999 12.516C15.568 12.3563 15.5313 12.1928 15.4898 12.0257C15.6058 11.9916 15.7197 11.9562 15.8315 11.9195C17.9371 11.2216 19.3066 10.0933 19.3066 8.9403C19.3066 7.83359 18.025 6.7644 16.0407 6.08169ZM11.106 2.98592C12.4619 1.80575 13.7291 1.34102 14.308 1.67319C14.9228 2.02773 15.1608 3.45783 14.7743 5.3335C14.7493 5.45594 14.7219 5.57757 14.6921 5.69841C13.8828 5.51498 13.0623 5.38534 12.2359 5.31034C11.7624 4.63017 11.2435 3.98272 10.6828 3.37239C10.8202 3.24038 10.9607 3.11155 11.1044 2.98592H11.106ZM6.36295 9.88013C6.52957 10.2017 6.70337 10.5184 6.88437 10.8303C7.06908 11.1497 7.26126 11.4646 7.46088 11.775C6.89233 11.7135 6.32732 11.6229 5.76807 11.5035C5.93096 10.9789 6.13059 10.4335 6.36375 9.88093L6.36295 9.88013ZM6.36295 8.03561C6.13458 7.49423 5.93974 6.96163 5.78005 6.4466C6.30306 6.32922 6.86201 6.2334 7.44411 6.16074C7.24928 6.46417 7.06163 6.77292 6.88117 7.087C6.70018 7.39894 6.52797 7.71515 6.36295 8.03561ZM6.77976 8.95867C7.02144 8.45562 7.28228 7.96215 7.56229 7.47826C7.84016 6.99384 8.13667 6.52139 8.45181 6.06093C8.99798 6.01941 9.55773 5.99705 10.1239 5.99705C10.6924 5.99705 11.2529 6.01941 11.7991 6.06093C12.1105 6.52139 12.4054 6.99251 12.6838 7.47427C12.9638 7.95656 13.2279 8.44763 13.4759 8.94749C13.2311 9.45214 12.9681 9.94774 12.687 10.4343C12.4086 10.9176 12.1148 11.3914 11.8055 11.8556C11.2609 11.8955 10.698 11.9147 10.1239 11.9147C9.55214 11.9147 8.99639 11.8971 8.46139 11.862C8.14413 11.3989 7.84496 10.9243 7.56388 10.4383C7.28388 9.95386 7.0225 9.46039 6.77976 8.95787V8.95867ZM13.3674 10.8271C13.5515 10.5062 13.7288 10.1814 13.8991 9.85298C14.1325 10.3807 14.3382 10.9201 14.5156 11.4691C13.9501 11.596 13.3784 11.6933 12.8028 11.7606C12.9966 11.4529 13.1845 11.1415 13.3666 10.8264L13.3674 10.8271ZM13.8912 8.03641C13.7219 7.71488 13.5462 7.39655 13.3642 7.08141C13.1842 6.77159 12.9979 6.4655 12.8052 6.16314C13.3905 6.2374 13.9518 6.33561 14.4797 6.45618C14.3102 6.99275 14.1138 7.51963 13.8912 8.03641ZM10.1318 3.93533C10.514 4.35176 10.8748 4.78723 11.213 5.24008C10.4901 5.20547 9.76667 5.20547 9.0427 5.24008C9.39963 4.76896 9.76454 4.33139 10.1318 3.93533ZM5.90301 1.69555C6.51786 1.34022 7.8753 1.84727 9.3078 3.11927C9.39963 3.20072 9.49145 3.28536 9.58328 3.37319C9.01936 3.98361 8.49653 4.63075 8.01823 5.31034C7.19427 5.38431 6.37597 5.51154 5.56844 5.69123C5.5216 5.50384 5.47955 5.31487 5.44228 5.12429V5.12589C5.09653 3.36121 5.3257 2.03092 5.90301 1.69715V1.69555ZM5.00551 11.3118C4.85379 11.2682 4.70314 11.2211 4.55356 11.1705C3.77534 10.9257 3.04885 10.5397 2.41039 10.0318C2.22769 9.90625 2.07269 9.74451 1.95499 9.55662C1.83729 9.36874 1.75938 9.1587 1.72608 8.93951C1.72608 8.27116 2.72261 7.41837 4.38507 6.83946C4.59428 6.766 4.80508 6.69946 5.01748 6.63984C5.26416 7.43165 5.56292 8.20628 5.9118 8.95867C5.5585 9.722 5.25601 10.5078 5.0063 11.311L5.00551 11.3118ZM9.25829 14.8891C8.65757 15.4401 7.96059 15.8759 7.20217 16.1747C7.00239 16.2705 6.7851 16.3243 6.56371 16.3328C6.34232 16.3413 6.12154 16.3043 5.91499 16.2242C5.33608 15.8888 5.09494 14.6 5.42312 12.8705C5.46251 12.6656 5.50723 12.4622 5.55727 12.2604C6.37334 12.4355 7.20035 12.5551 8.0326 12.6182C8.51477 13.3014 9.04132 13.9523 9.60883 14.5665C9.49491 14.6767 9.37833 14.784 9.25909 14.8883L9.25829 14.8891ZM10.1542 14.0012C9.78211 13.6003 9.4116 13.1564 9.04909 12.6789C9.40042 12.6927 9.75868 12.6996 10.1239 12.6996C10.4981 12.6996 10.8675 12.6916 11.2322 12.6757C10.8957 13.1356 10.5359 13.578 10.1542 14.0012ZM14.9188 15.0927C14.9019 15.3138 14.8398 15.5291 14.7364 15.7252C14.633 15.9213 14.4904 16.0941 14.3176 16.233C13.7387 16.5683 12.501 16.1324 11.1659 14.9841C11.0131 14.8532 10.8593 14.7132 10.7044 14.5641C11.261 13.9479 11.7753 13.2949 12.2439 12.6094C13.0808 12.5388 13.9118 12.4108 14.7312 12.2261C14.7684 12.3773 14.8014 12.5253 14.8302 12.6701C15.0079 13.4657 15.0377 14.2872 14.918 15.0935L14.9188 15.0927ZM15.5848 11.1745C15.4834 11.208 15.3804 11.24 15.275 11.2703C15.0183 10.4748 14.7078 9.69764 14.3455 8.9443C14.6944 8.2012 14.9932 7.4356 15.2398 6.65261C15.4267 6.70611 15.6095 6.7644 15.7852 6.82429C17.486 7.40879 18.5224 8.27436 18.5224 8.9403C18.5224 9.65096 17.4021 10.5724 15.584 11.1745H15.5848Z" fill="black"/>
<path d="M10.124 7.30029C10.4484 7.30029 10.7656 7.39652 11.0354 7.57681C11.3051 7.7571 11.5153 8.01335 11.6394 8.31313C11.7635 8.61291 11.7959 8.94277 11.7325 9.26096C11.6691 9.57915 11.5127 9.87139 11.2832 10.1007C11.0536 10.33 10.7612 10.4861 10.443 10.5492C10.1247 10.6123 9.79491 10.5796 9.49525 10.4552C9.19558 10.3308 8.93954 10.1204 8.75952 9.85044C8.57949 9.58051 8.48357 9.26326 8.48389 8.93881C8.48452 8.50424 8.6576 8.08768 8.96511 7.78062C9.27262 7.47356 9.68943 7.30029 10.124 7.30029Z" fill="black"/>
</g>
<defs>
<clipPath id="clip0_808_1374">
<rect width="18.3654" height="16.34" fill="white" transform="translate(0.941162 0.785156)"/>
</clipPath>
</defs>
</svg>
