<svg fill="#1A1A1A" xmlns="http://www.w3.org/2000/svg"  viewBox="0 0 48 48" width="48px" height="48px"><path d="M 25.527344 6.0019531 L 17.306641 10.111328 L 10.111328 17.306641 L 6.0019531 24.5 L 10.111328 30.667969 L 19.357422 27.583984 L 14.220703 42.990234 C 14.459257 42.981856 14.747163 42.948846 15.001953 42.933594 C 14.988445 42.934828 14.974426 42.938259 14.960938 42.939453 L 15.337891 42.910156 C 15.742696 42.881577 16.124263 42.864605 16.560547 42.816406 L 40.939453 40.939453 L 42.939453 14.960938 C 42.93282 15.03588 42.919976 15.113928 42.912109 15.189453 C 43.236598 12.248885 42.615293 9.7363866 40.939453 8.0605469 C 39.849453 6.9705469 38.400938 6.3196094 36.710938 6.0996094 L 31.689453 10.109375 L 25.527344 6.0019531 z M 14.220703 42.990234 L 10.109375 30.669922 L 6.0195312 35.789062 C 6.1095313 37.879062 6.7705469 39.649453 8.0605469 40.939453 C 9.5505469 42.429453 11.690703 43.080234 14.220703 42.990234 z M 31.693359 10.111328 L 42.908203 15.210938 C 42.905749 15.234169 42.902961 15.257964 42.900391 15.28125 L 28.611328 19.359375 L 31.693359 10.111328 z M 42.826172 15.888672 C 42.820661 15.925315 42.818285 15.961283 42.8125 15.998047 C 42.817027 15.96261 42.821773 15.923787 42.826172 15.888672 z M 28.609375 19.361328 L 32.980469 32.980469 L 19.361328 27.582031 L 28.609375 19.361328 z"/></svg>