<svg width="18" height="18" viewBox="0 0 18 18" fill="none" xmlns="http://www.w3.org/2000/svg">
<circle cx="8.9856" cy="9.00611" r="8.17213" fill="black"/>
<path d="M9.93544 10.4204C9.93544 9.79807 9.42627 9.2889 8.80393 9.2889C8.12502 9.2889 7.5734 8.73728 7.5734 8.05833C7.5734 7.37942 8.12502 6.8278 8.80393 6.8278C8.88878 6.8278 8.97367 6.84197 9.04439 6.85611V4.42332C8.95954 4.42332 8.88878 4.40918 8.80393 4.40918C6.79547 4.40918 5.15479 6.03575 5.15479 8.05833C5.15479 9.67078 6.21557 11.0427 7.67239 11.5236V13.3482C7.67239 13.4897 7.78555 13.6028 7.92701 13.6028H9.66672C9.80815 13.6028 9.92131 13.4897 9.92131 13.3482V10.4204H9.93544Z" fill="white"/>
<path d="M8.80396 4.42334V6.84196C9.48287 6.84196 10.0345 7.39358 10.0345 8.07249C10.0345 8.75144 9.48287 9.30306 8.80396 9.30306C9.42629 9.30306 9.9355 9.81224 9.9355 10.4346V11.5378C11.3923 11.0569 12.4531 9.68494 12.4531 8.07249C12.4531 6.04991 10.8266 4.42334 8.80396 4.42334Z" fill="url(#paint0_linear_827_122)"/>
<defs>
<linearGradient id="paint0_linear_827_122" x1="10.6319" y1="10.8722" x2="10.6319" y2="7.00105" gradientUnits="userSpaceOnUse">
<stop stop-color="white" stop-opacity="0.4"/>
<stop offset="1" stop-color="white"/>
</linearGradient>
</defs>
</svg>
