<svg width="17" height="17" viewBox="0 0 17 17" fill="none" xmlns="http://www.w3.org/2000/svg">
<path fill-rule="evenodd" clip-rule="evenodd" d="M8.23585 0.292236C12.7492 0.292236 16.408 3.95102 16.408 8.46436C16.408 12.9777 12.7492 16.6365 8.23585 16.6365C3.72251 16.6365 0.0637207 12.9777 0.0637207 8.46436C0.0637207 3.95102 3.72251 0.292236 8.23585 0.292236ZM9.03143 12.151V10.5529C9.31744 10.7959 9.6281 10.9782 9.96341 11.0997C10.2987 11.2213 10.6373 11.282 10.9792 11.282C11.1797 11.282 11.3548 11.2637 11.5044 11.2271C11.654 11.1905 11.7789 11.1397 11.8791 11.0748C11.9794 11.0099 12.0542 10.9333 12.1035 10.8451C12.1528 10.7568 12.1775 10.6611 12.1775 10.5579C12.1775 10.4181 12.138 10.2932 12.0591 10.1834C11.9802 10.0735 11.8726 9.97195 11.7361 9.87873C11.5997 9.7855 11.4378 9.69562 11.2504 9.60906C11.063 9.5225 10.8609 9.43426 10.6439 9.34437C10.0916 9.11132 9.67987 8.82668 9.40866 8.49041C9.13745 8.15415 9.00184 7.74798 9.00184 7.27189C9.00184 6.89901 9.07581 6.57858 9.22374 6.31057C9.37167 6.04256 9.57302 5.82199 9.8278 5.64887C10.0826 5.47575 10.3776 5.3484 10.7129 5.26684C11.0482 5.18527 11.4033 5.14448 11.7781 5.14448C12.1462 5.14448 12.4725 5.16696 12.7569 5.2119C13.0412 5.25685 13.3034 5.32593 13.5434 5.41914V6.91233C13.425 6.8291 13.296 6.75586 13.1563 6.6926C13.0165 6.62935 12.8728 6.5769 12.7248 6.53529C12.5769 6.49368 12.4298 6.46288 12.2835 6.44291C12.1372 6.42292 11.9983 6.41294 11.8668 6.41294C11.686 6.41294 11.5216 6.43042 11.3737 6.46538C11.2258 6.50033 11.1008 6.54944 10.9989 6.6127C10.897 6.67595 10.8181 6.7517 10.7622 6.83992C10.7064 6.92815 10.6784 7.02719 10.6784 7.13707C10.6784 7.25692 10.7097 7.36429 10.7721 7.45916C10.8346 7.55405 10.9233 7.64394 11.0384 7.72884C11.1535 7.81374 11.2932 7.89697 11.4575 7.97854C11.6219 8.06011 11.8076 8.14417 12.0147 8.23073C12.2975 8.35059 12.5514 8.47793 12.7766 8.61276C13.0018 8.7476 13.1949 8.89991 13.3561 9.06971C13.5171 9.2395 13.6404 9.43343 13.7258 9.6515C13.8113 9.86957 13.854 10.1234 13.854 10.4131C13.854 10.8126 13.7792 11.148 13.6297 11.4194C13.48 11.6907 13.2771 11.9104 13.0207 12.0785C12.7643 12.2467 12.4659 12.3674 12.1257 12.4406C11.7854 12.5139 11.4263 12.5505 11.0482 12.5505C10.6603 12.5505 10.2913 12.5172 9.94122 12.4506C9.5911 12.384 9.28784 12.2841 9.03143 12.151ZM8.3634 6.58362H6.30189V12.4228H4.6688V6.58362H2.61737V5.27217H8.3634V6.58362Z" fill="black"/>
</svg>
