<svg width="17" height="18" viewBox="0 0 17 18" fill="none" xmlns="http://www.w3.org/2000/svg">
<g clip-path="url(#clip0_827_181)">
<path fill-rule="evenodd" clip-rule="evenodd" d="M0.567139 6.6317C0.567139 4.56421 0.567139 3.53045 0.969502 2.74077C1.32343 2.04614 1.88818 1.48139 2.58281 1.12746C3.37249 0.725098 4.40625 0.725098 6.47374 0.725098H10.9815C13.049 0.725098 14.0827 0.725098 14.8724 1.12746C15.567 1.48139 16.1318 2.04614 16.4857 2.74077C16.8881 3.53045 16.8881 4.56421 16.8881 6.6317V11.1394C16.8881 13.2069 16.8881 14.2407 16.4857 15.0303C16.1318 15.725 15.567 16.2897 14.8724 16.6437C14.0827 17.046 13.049 17.046 10.9815 17.046H6.47374C4.40625 17.046 3.37249 17.046 2.58281 16.6437C1.88818 16.2897 1.32343 15.725 0.969502 15.0303C0.567139 14.2407 0.567139 13.2069 0.567139 11.1394V6.6317ZM9.10458 5.52456L7.06813 8.97201L9.24686 12.6327C9.29215 12.7157 9.24686 12.7341 9.18123 12.7341H7.62654C7.51701 12.7341 7.44036 12.7301 7.39659 12.6552C7.25046 12.3633 7.1045 12.0732 6.9586 11.7849C6.81253 11.4968 6.65743 11.203 6.49334 10.9034C6.32908 10.6041 6.16669 10.3009 6.0061 9.99388C5.89746 10.2166 5.77977 10.4393 5.66207 10.662L5.66206 10.662C5.62151 10.7388 5.58096 10.8155 5.54078 10.8922C5.38375 11.1917 5.22864 11.4893 5.07547 11.7849C4.92219 12.0807 4.76526 12.3746 4.60469 12.6664C4.57543 12.7338 4.52427 12.7408 4.45138 12.7408H2.95144C2.89251 12.7408 2.88539 12.6965 2.9186 12.644L5.03167 9.08428L2.97332 5.51331C2.93594 5.46237 2.96811 5.4081 3.02808 5.41224H4.57181C4.63866 5.40851 4.69774 5.43369 4.73605 5.49087C4.86744 5.79036 5.01342 6.08985 5.17399 6.38922C5.33444 6.68871 5.49689 6.98447 5.66121 7.27633C5.82547 7.5683 5.98786 7.864 6.12653 8.16349C6.27243 7.85659 6.42025 7.55716 6.56993 7.26513C6.7195 6.97316 6.87275 6.67933 7.02978 6.38363C7.18669 6.08799 7.33813 5.79415 7.48414 5.50212C7.50355 5.43806 7.54995 5.4056 7.61552 5.41224H9.04978C9.10458 5.41224 9.12719 5.48703 9.10458 5.52456ZM9.76131 11.6167C10.2697 12.4975 11.2811 12.8951 12.2466 12.88C12.9844 12.8766 13.7219 12.7336 14.4035 12.4421C14.445 12.4225 14.4719 12.3764 14.4693 12.3297C14.4646 12.2537 14.4592 12.1777 14.4537 12.1016C14.4396 11.9046 14.4254 11.7076 14.4254 11.51V4.87344C14.4308 4.83477 14.3974 4.80055 14.3597 4.80608H12.9802C12.9364 4.80608 12.9145 4.83239 12.9145 4.88468V7.09689C11.6902 6.98439 10.4011 7.41294 9.76131 8.55668C9.51335 9.00493 9.38494 9.51233 9.38908 10.0277C9.38902 10.6642 9.51311 11.1938 9.76131 11.6167ZM12.9145 8.42192V11.4875C11.8599 11.8039 10.92 11.0506 10.9438 9.96034C10.9436 8.90578 11.9145 8.14411 12.9145 8.42192Z" fill="black"/>
</g>
<defs>
<clipPath id="clip0_827_181">
<rect width="16.3443" height="16.3443" fill="white" transform="translate(0.552979 0.717529)"/>
</clipPath>
</defs>
</svg>
